<?xml version="1.0" standalone="no"?>
<svg version="1.0" xmlns="http://www.w3.org/2000/svg"
 width="418.000000pt" height="394.000000pt" viewBox="0 0 418.000000 394.000000"
 preserveAspectRatio="xMidYMid meet">
<g transform="translate(0.000000,394.000000) scale(0.100000,-0.100000)"
fill="#C9A94E" stroke="none">
<path d="M1539 3667 c-85 -24 -147 -89 -169 -178 -31 -122 77 -245 184 -209
39 12 66 43 66 73 0 16 -5 18 -33 13 -25 -5 -38 -2 -49 11 -43 48 -10 113 56
113 78 0 113 -96 71 -197 -20 -47 -103 -133 -129 -133 -25 0 -72 -41 -82 -72
-8 -26 -43 -57 -65 -58 -23 0 -67 -37 -85 -71 -15 -31 -11 -69 8 -69 6 0 3 -9
-7 -20 -18 -20 -35 -18 -35 3 0 7 4 6 10 -3 18 -28 11 32 -9 76 -27 60 -76
111 -126 130 -76 29 -164 4 -186 -53 -12 -33 5 -57 31 -43 61 33 131 -23 130
-102 -1 -50 -30 -98 -79 -133 -25 -17 -51 -45 -58 -63 -18 -43 0 -42 40 3 29
33 57 46 57 27 0 -24 -92 -78 -111 -66 -6 3 -15 1 -22 -4 -7 -5 -24 -12 -39
-16 -33 -7 -78 -70 -78 -106 0 -26 -17 -65 -58 -130 -25 -40 -29 -105 -8 -135
17 -26 35 -82 41 -129 3 -21 10 -47 16 -59 19 -37 62 -77 82 -77 10 0 32 -10
49 -21 l30 -22 -47 -27 c-143 -84 -231 -231 -242 -405 -7 -113 7 -191 51 -280
34 -68 117 -166 179 -210 l27 -20 -112 -118 c-89 -95 -109 -121 -97 -129 11
-8 11 -9 -2 -5 -18 6 -150 -122 -193 -187 -62 -93 -1 -206 112 -206 40 0 49 5
112 68 l69 67 47 -43 47 -43 36 35 c34 34 38 35 53 19 16 -15 15 -19 -12 -50
-17 -19 -30 -38 -30 -43 0 -12 202 -200 216 -200 15 0 204 209 204 225 0 12
-100 106 -121 113 -5 2 -22 -10 -38 -26 l-29 -29 -32 31 c-31 30 -32 31 -26 6
6 -22 6 -23 -5 -6 -9 15 -7 22 12 40 18 16 20 17 8 2 -11 -15 -11 -18 -1 -15
8 3 21 17 30 32 16 27 16 28 -21 65 -28 27 -40 34 -46 24 -6 -10 -10 -10 -20
2 -9 11 -9 16 0 22 8 4 9 3 5 -4 -14 -23 6 -11 30 18 l25 29 36 -39 c42 -47
57 -49 95 -13 l28 27 22 -21 c13 -11 29 -18 37 -15 8 2 -2 -11 -22 -31 -21
-19 -37 -39 -37 -44 0 -15 105 -113 121 -113 13 0 172 163 193 197 4 8 -8 27
-34 51 l-42 39 97 16 c158 26 299 109 375 220 l24 35 44 -34 c47 -36 129 -70
191 -80 90 -14 219 36 300 117 78 78 134 220 130 327 -2 46 1 56 28 85 17 17
57 68 89 112 97 133 153 170 215 144 70 -28 50 -116 -25 -112 -27 2 -36 -2
-36 -13 0 -79 119 -93 187 -22 99 103 54 258 -92 313 -45 18 -155 17 -199 0
-16 -7 -17 -6 -7 13 15 29 70 42 177 42 158 0 278 51 389 164 106 108 161 236
170 391 2 39 13 96 24 128 53 153 27 314 -68 416 l-30 32 19 32 c37 59 21 141
-35 186 -22 16 -24 23 -16 40 20 36 1 195 -26 222 -6 6 -55 14 -107 17 -75 4
-100 1 -119 -10 -21 -15 -25 -14 -51 13 -47 47 -136 52 -194 10 l-29 -20 -36
25 c-167 113 -385 88 -544 -61 -46 -44 -65 -55 -121 -69 -93 -22 -215 -85
-295 -151 -121 -100 -219 -258 -270 -435 -20 -69 -30 -88 -55 -105 -76 -52
-100 -120 -76 -211 33 -119 32 -120 -28 -79 -66 45 -95 148 -68 246 17 60 81
154 172 252 128 139 139 153 132 174 -4 13 -3 15 4 4 7 -10 16 -4 36 31 61
104 77 233 42 335 -47 141 -208 229 -347 190z m-9 -22 c0 -2 -10 -9 -22 -15
-22 -11 -22 -10 -4 4 21 17 26 19 26 11z m199 -41 c87 -47 137 -139 135 -249
-2 -128 -41 -199 -209 -380 -159 -171 -205 -256 -205 -382 0 -95 40 -161 129
-213 12 -7 10 -16 -14 -50 -41 -59 -65 -68 -104 -41 -70 50 -119 146 -128 249
-7 86 8 156 54 252 31 65 56 95 179 218 173 173 206 228 208 345 1 114 -49
186 -141 203 -67 13 -147 -38 -159 -101 -7 -41 20 -103 53 -118 31 -14 29 -27
-3 -27 -41 0 -83 31 -105 78 -19 38 -20 48 -9 89 6 26 20 60 32 75 23 33 83
74 119 81 47 10 120 -2 168 -29z m6 26 c3 -6 -1 -7 -9 -4 -18 7 -21 14 -7 14
6 0 13 -4 16 -10z m1072 -36 c-3 -3 -12 -4 -19 -1 -8 3 -5 6 6 6 11 1 17 -2
13 -5z m48 -14 c3 -6 -1 -7 -9 -4 -18 7 -21 14 -7 14 6 0 13 -4 16 -10z m21
-34 c32 -15 76 -44 97 -64 105 -101 128 -268 46 -337 -52 -43 -109 -25 -109
35 0 30 26 53 52 48 18 -4 22 50 8 100 -12 48 -69 108 -125 133 -27 12 -64 19
-112 19 -136 0 -248 -79 -318 -225 -33 -68 -38 -87 -38 -154 -1 -157 93 -265
242 -278 36 -3 68 0 91 9 l35 14 -30 15 c-34 16 -41 55 -14 72 24 15 48 1 60
-33 9 -24 14 -28 28 -20 18 9 45 64 56 113 10 46 48 77 94 77 22 0 52 5 67 10
23 9 30 7 59 -23 32 -33 33 -35 26 -98 -10 -90 -21 -106 -88 -125 -36 -10 -69
-28 -88 -48 l-30 -31 32 -3 c39 -4 57 -24 49 -56 -12 -47 -76 -39 -76 9 0 39
-18 29 -30 -16 -14 -52 -5 -113 29 -180 20 -42 40 -63 85 -93 50 -33 68 -40
127 -44 86 -6 142 9 220 59 l59 39 -6 -28 c-10 -40 -31 -57 -112 -86 -131 -47
-250 -31 -336 45 -122 107 -137 300 -32 406 23 23 55 44 71 48 55 11 80 30 93
70 7 21 11 43 8 49 -2 6 -7 2 -10 -9 -19 -54 -33 -69 -84 -86 -74 -25 -108
-53 -140 -112 -23 -44 -27 -64 -27 -137 0 -71 4 -94 26 -140 52 -110 151 -179
270 -188 76 -5 171 18 206 50 l22 21 -12 -32 c-17 -46 -77 -66 -197 -65 -83 0
-102 4 -147 27 -29 15 -68 41 -88 58 -19 17 -36 27 -37 23 0 -5 -2 -20 -3 -34
-1 -14 -6 -34 -10 -45 -8 -18 -7 -19 10 -5 17 14 17 14 4 -7 -7 -12 -16 -18
-19 -13 -3 5 -16 7 -28 3 -12 -3 -19 -10 -15 -16 3 -6 1 -7 -6 -3 -6 4 -9 11
-6 16 3 5 1 11 -5 15 -5 3 -10 17 -10 30 0 50 -72 70 -145 39 l-38 -15 -38 37
c-22 21 -39 41 -39 44 0 4 23 19 52 35 41 22 65 28 117 29 36 1 81 -3 100 -8
33 -8 34 -7 26 15 -4 13 -10 60 -12 105 -4 70 -2 90 20 143 14 33 23 61 21 61
-3 0 -21 -11 -42 -23 -68 -43 -161 -57 -233 -35 -22 6 -42 8 -45 5 -4 -3 1
-24 10 -47 9 -22 16 -56 16 -76 0 -43 -25 -132 -45 -158 -14 -18 -16 -17 -58
21 -39 36 -42 42 -30 59 19 26 17 119 -3 139 -9 9 -23 14 -32 10 -20 -8 -42
13 -42 41 0 27 34 54 68 54 22 0 21 2 -14 45 -21 24 -41 42 -45 39 -4 -2 -11
1 -15 7 -5 8 -3 9 6 4 10 -6 12 -4 6 11 -65 159 -61 283 10 415 116 212 352
311 540 225z m-320 9 c-11 -8 -25 -15 -30 -15 -6 1 0 7 14 15 32 19 40 18 16
0z m564 1 c0 -2 -9 -6 -20 -9 -11 -3 -18 -1 -14 4 5 9 34 13 34 5z m-1466 -30
c18 -8 46 -31 62 -52 26 -34 29 -45 29 -113 0 -118 -32 -169 -202 -334 -190
-184 -263 -347 -235 -523 15 -86 48 -151 112 -215 55 -54 57 -55 81 -40 l24
15 -24 -27 c-16 -18 -27 -23 -32 -16 -5 8 -16 8 -42 -2 -29 -10 -39 -10 -51 0
-8 7 -19 10 -24 8 -4 -3 -14 -1 -22 5 -13 8 -12 9 1 5 11 -4 21 3 29 19 12 21
10 31 -10 75 -27 57 -52 79 -90 79 -23 0 -22 -2 13 -25 38 -27 67 -70 67 -103
0 -32 -26 -33 -56 -1 -21 22 -28 39 -29 69 0 27 -4 39 -12 36 -20 -8 -11 67
10 83 10 7 22 24 28 38 11 30 1 100 -18 118 -12 12 -11 20 8 57 12 24 24 71
28 112 6 70 7 71 33 68 19 -2 36 6 62 33 40 40 54 79 38 106 -9 14 -9 17 2 13
7 -3 19 2 26 11 7 8 23 15 35 15 28 0 81 43 91 73 4 12 24 41 45 64 57 62 89
132 89 195 0 60 -28 124 -54 122 -8 -1 -14 3 -13 9 1 6 -14 12 -33 13 -49 2
-52 3 -45 14 9 14 40 12 79 -4z m-90 -11 c3 -8 2 -14 -2 -12 -17 5 -55 -34
-62 -65 l-8 -33 -1 31 c-1 23 8 40 31 63 37 36 34 35 42 16z m1466 0 c-16 -19
-1 -19 24 0 49 37 140 4 171 -62 24 -49 16 -146 -16 -204 -22 -40 -49 -53 -40
-19 2 8 5 47 8 85 3 58 0 76 -17 103 -24 38 -57 54 -84 40 -15 -8 -23 -4 -43
18 -22 27 -24 27 -20 7 6 -29 3 -29 -17 2 -12 18 -13 23 -3 19 8 -3 20 2 27
11 7 8 15 15 17 15 3 0 0 -7 -7 -15z m407 -11 c-3 -3 -12 -4 -19 -1 -8 3 -5 6
6 6 11 1 17 -2 13 -5z m14 -20 c11 -3 20 -27 29 -73 16 -86 9 -121 -25 -121
-28 0 -30 3 -14 28 12 19 0 126 -13 125 -4 0 -29 3 -55 7 -52 8 -83 -2 -83
-27 0 -13 2 -14 18 -2 15 13 16 12 3 -4 -9 -11 -12 -33 -9 -68 3 -28 2 -45 -2
-39 -5 8 -9 8 -13 -3 -4 -10 1 -14 16 -13 16 1 22 7 21 23 -1 13 3 19 11 17 7
-3 26 11 43 30 17 20 34 36 37 36 3 0 5 -13 5 -30 0 -24 -4 -30 -22 -30 -13
-1 -34 -7 -48 -15 -24 -14 -24 -14 23 -15 30 0 46 -4 42 -10 -3 -5 -21 -10
-39 -10 -19 0 -52 -6 -74 -14 -22 -8 -44 -11 -48 -8 -4 4 -4 2 0 -5 4 -7 14
-9 24 -6 13 4 13 2 -3 -10 -11 -8 -24 -13 -29 -10 -5 4 -6 0 -1 -7 5 -9 4 -11
-3 -6 -7 4 -12 2 -12 -5 0 -7 -3 -10 -6 -7 -3 4 2 20 11 37 9 18 13 37 8 44
-5 9 -3 9 9 -1 13 -11 16 -8 22 19 9 46 7 104 -4 133 -8 22 -6 28 18 41 25 14
111 14 163 -1z m-1573 -45 c-3 -8 -7 -3 -11 10 -4 17 -3 21 5 13 5 -5 8 -16 6
-23z m767 11 c-3 -5 -12 -10 -18 -10 -7 0 -6 4 3 10 19 12 23 12 15 0z m194
-30 c82 -41 132 -150 76 -164 -15 -4 -30 -18 -38 -37 l-12 -31 -32 50 c-45 68
-164 162 -207 162 -41 0 -3 29 59 44 37 9 113 -3 154 -24z m226 9 c3 6 10 11
16 11 5 0 1 -8 -8 -18 -16 -16 -19 -16 -30 -2 -7 8 -12 20 -12 25 0 6 6 2 13
-8 9 -12 16 -14 21 -8z m432 -1 c-3 -8 -6 -5 -6 6 -1 11 2 17 5 13 3 -3 4 -12
1 -19z m-905 0 c-9 -9 -8 -16 5 -30 9 -10 11 -18 5 -18 -19 0 -33 35 -20 48 7
7 14 12 17 12 3 0 0 -5 -7 -12z m825 -11 c4 -5 0 -5 -8 -2 -11 4 -27 -7 -48
-31 -18 -20 -34 -35 -35 -33 -2 2 -1 20 1 39 4 33 7 35 43 35 21 0 42 -4 47
-8z m-1055 -14 c-6 -3 -10 -9 -6 -14 3 -5 0 -9 -5 -9 -6 0 -11 5 -11 10 0 6
-4 10 -10 10 -5 0 -9 -3 -8 -7 2 -5 -9 -33 -24 -63 -78 -159 -77 -321 4 -451
29 -48 30 -51 12 -65 -11 -8 -35 -21 -55 -30 -39 -16 -54 -39 -64 -96 -7 -42
-42 -68 -91 -68 -83 0 -144 -46 -165 -123 -6 -23 -17 -60 -25 -81 -18 -52 -9
-59 24 -18 19 22 36 32 55 32 40 0 92 24 111 51 9 13 16 42 16 65 0 37 3 43
26 48 43 11 74 50 74 92 0 25 7 46 22 61 27 29 38 29 38 -1 0 -34 37 -76 66
-76 17 0 23 4 18 13 -4 6 -3 9 1 4 15 -13 16 -79 1 -102 -8 -12 -29 -25 -47
-29 -18 -3 -41 -14 -51 -23 -18 -16 -18 -16 -12 3 13 35 47 64 76 64 30 0 38
14 12 24 -28 11 -42 7 -74 -21 -31 -26 -32 -28 -28 -97 6 -86 -12 -129 -49
-120 -29 8 -71 -18 -83 -51 -5 -14 -5 -36 0 -55 5 -16 5 -28 1 -26 -11 7 -65
-50 -58 -61 3 -5 -4 -20 -15 -33 l-20 -25 16 28 c9 15 12 27 6 27 -5 0 -10 23
-10 53 0 38 -3 48 -10 37 -6 -8 -10 -38 -8 -66 1 -50 0 -54 -60 -120 -33 -38
-57 -70 -52 -72 11 -4 -11 -42 -24 -42 -4 0 -3 6 3 14 6 8 11 18 10 22 -1 5 0
20 4 34 11 45 15 120 6 120 -13 0 -42 -108 -37 -140 4 -23 -11 -44 -98 -141
-69 -76 -100 -117 -94 -125 6 -7 5 -11 -3 -11 -9 0 -11 21 -9 76 4 106 16 155
56 242 38 80 59 156 46 164 -5 3 -14 -11 -21 -32 -6 -20 -26 -62 -44 -92 -18
-31 -39 -73 -46 -94 -26 -74 -170 -147 -319 -161 -197 -20 -288 -51 -367 -128
-89 -87 -127 -248 -88 -380 22 -77 84 -169 138 -207 48 -33 63 -38 51 -19 -4
7 -3 8 5 4 14 -9 4 -29 -12 -23 -7 3 -28 -11 -48 -30 l-36 -34 -51 40 c-49 39
-115 118 -142 170 -7 13 -21 54 -31 90 -47 165 -1 356 115 471 93 91 186 132
359 156 162 22 233 47 320 116 37 30 94 114 84 125 -3 3 -20 -11 -37 -31 -79
-90 -204 -151 -343 -166 -104 -12 -169 10 -243 84 -64 64 -88 129 -82 220 5
84 40 150 138 261 127 143 162 235 129 336 -23 69 -108 130 -159 114 -11 -3
-20 -2 -20 3 0 26 90 30 134 7 24 -13 31 -13 38 -3 7 10 9 10 6 -1 -3 -8 10
-39 28 -69 76 -126 55 -240 -76 -402 -75 -93 -120 -180 -120 -232 0 -67 45
-134 112 -169 49 -25 183 -26 254 -2 192 64 349 293 290 423 l-15 35 0 -30 c2
-77 -1 -109 -11 -99 -13 13 -24 96 -17 126 6 24 64 95 70 87 2 -2 9 -13 15
-24 13 -24 11 -29 41 106 26 114 98 266 166 352 79 100 207 188 331 228 68 22
85 35 32 25 -24 -4 -29 -3 -16 4 9 6 30 11 47 13 17 2 34 7 38 10 3 4 9 4 12
1 3 -4 0 -9 -7 -11z m767 -1 c17 -32 19 -95 4 -144 -15 -52 -39 -68 -28 -19 6
27 -4 99 -21 159 -5 18 -2 22 14 22 12 0 26 -8 31 -18z m-569 -12 c-20 -13
-33 -13 -25 0 3 6 14 10 23 10 15 0 15 -2 2 -10z m-1150 -20 c6 -11 8 -20 6
-20 -3 0 -10 9 -16 20 -6 11 -8 20 -6 20 3 0 10 -9 16 -20z m757 -29 c-42 -21
-93 -51 -113 -66 -19 -15 -37 -25 -40 -22 -6 6 116 83 170 108 74 34 62 20
-17 -20z m495 -3 c72 -38 139 -112 169 -186 l22 -53 -21 -37 c-11 -20 -25 -57
-32 -81 l-11 -43 -23 21 c-30 29 -71 27 -103 -5 -21 -21 -24 -32 -20 -61 l6
-36 -44 6 c-46 7 -106 39 -137 73 -50 57 -71 162 -47 235 22 64 83 106 147
102 6 0 21 -1 33 -2 29 -1 89 -64 89 -92 0 -12 -10 -33 -22 -46 -12 -13 -18
-26 -14 -30 4 -5 19 5 33 21 34 40 27 96 -16 139 -24 24 -40 31 -85 35 -30 2
-69 -1 -87 -7 -29 -10 -30 -9 -18 7 63 83 89 89 181 40z m38 6 c0 -2 -9 0 -20
6 -11 6 -20 13 -20 16 0 2 9 0 20 -6 11 -6 20 -13 20 -16z m248 1 c-3 -3 -9 2
-12 12 -6 14 -5 15 5 6 7 -7 10 -15 7 -18z m315 0 c-3 -9 -8 -14 -10 -11 -3 3
-2 9 2 15 9 16 15 13 8 -4z m-1663 -4 c0 -5 -7 -14 -15 -21 -12 -10 -15 -10
-15 3 0 8 -6 18 -12 20 -7 3 -1 6 15 6 15 1 27 -3 27 -8z m1131 -18 c13 -16
12 -17 -3 -4 -17 13 -22 21 -14 21 2 0 10 -8 17 -17z m436 -30 c-3 -10 -5 -2
-5 17 0 19 2 27 5 18 2 -10 2 -26 0 -35z m-711 -8 c-3 -8 0 -15 7 -15 8 0 7
-4 -3 -9 -21 -14 -31 -3 -17 19 14 24 21 26 13 5z m380 -83 c18 -31 29 -40 37
-33 9 7 16 2 24 -16 11 -22 10 -26 -7 -30 -11 -3 -17 -9 -15 -14 3 -4 13 -6
23 -3 14 5 14 4 2 -4 -17 -13 -40 2 -40 25 0 21 -48 102 -84 143 l-31 35 33
-30 c18 -16 44 -49 58 -73z m659 78 c-4 -6 -1 -18 7 -27 12 -15 11 -15 -10 -4
-19 10 -21 15 -11 27 13 16 23 19 14 4z m-528 -16 c0 -15 -45 -40 -54 -30 -3
2 4 7 15 10 11 4 23 13 26 21 7 20 13 19 13 -1z m-1096 -17 c-10 -9 -11 -8 -5
6 3 10 9 15 12 12 3 -3 0 -11 -7 -18z m1608 -6 c49 -25 71 -60 71 -111 0 -27
4 -39 11 -34 8 4 8 0 0 -15 -14 -25 -22 -28 -15 -3 5 15 3 14 -10 -2 -14 -17
-19 -18 -39 -7 -18 9 -23 19 -19 37 12 62 -70 103 -167 84 -29 -5 -61 -15 -72
-21 -35 -18 -36 2 -1 31 67 56 175 74 241 41z m-1479 -4 c0 -2 -12 -14 -27
-28 l-28 -24 24 28 c23 25 31 32 31 24z m1561 -39 c15 -28 5 -21 -21 15 -15
20 -17 27 -6 18 9 -8 22 -23 27 -33z m-368 -29 c41 -39 61 -47 72 -30 3 5 30
13 60 16 62 8 115 -7 115 -34 0 -14 -15 -16 -108 -16 -91 0 -109 3 -108 15 1
8 -4 14 -11 13 -6 -2 -15 6 -18 17 -7 23 -58 53 -70 42 -4 -4 -1 3 6 16 8 12
16 17 18 11 1 -5 22 -28 44 -50z m-84 28 c-2 -1 -14 -10 -26 -21 -21 -17 -21
-17 -16 3 3 13 13 21 26 21 11 0 18 -1 16 -3z m-1510 -30 c-13 -13 -26 -21
-29 -19 -5 4 38 42 48 42 3 0 -6 -10 -19 -23z m341 10 c0 -2 -12 -14 -27 -28
l-28 -24 24 28 c23 25 31 32 31 24z m1221 -10 c22 -18 30 -44 19 -71 -12 -32
-45 -42 -75 -22 -36 23 -41 53 -14 82 25 26 46 30 70 11z m176 7 c-3 -3 -12
-4 -19 -1 -8 3 -5 6 6 6 11 1 17 -2 13 -5z m-1507 -24 c-6 -11 -13 -20 -16
-20 -2 0 0 9 6 20 6 11 13 20 16 20 2 0 0 -9 -6 -20z m1227 -12 c-2 -7 0 -22
6 -33 9 -18 8 -18 -6 -7 -9 8 -21 11 -27 7 -18 -11 -100 -17 -100 -8 0 4 19 9
41 10 27 1 49 8 63 22 24 24 30 26 23 9z m-1497 -15 c0 -12 -43 -53 -57 -53
-19 0 -16 10 9 37 20 22 48 31 48 16z m313 -28 c-3 -9 -8 -14 -10 -11 -3 3 -2
9 2 15 9 16 15 13 8 -4z m1336 -21 c-18 -22 -65 -45 -74 -36 -5 4 -5 2 -2 -5
8 -13 -1 -43 -13 -43 -5 0 -7 10 -5 22 3 12 -3 27 -13 35 -15 13 -15 13 8 7
34 -9 32 -9 62 6 15 7 25 17 22 21 -3 5 2 9 12 9 14 0 14 -3 3 -16z m251 1 c0
-9 -6 -12 -15 -9 -8 4 -12 10 -9 15 8 14 24 10 24 -6z m-1980 -9 c0 -2 -7 -9
-15 -16 -13 -11 -14 -10 -9 4 5 14 24 23 24 12z m1977 -21 c61 -31 127 -100
154 -160 26 -59 34 -156 19 -229 -12 -60 -33 -67 -29 -10 1 16 2 65 3 109 0
68 -4 88 -27 131 -50 98 -154 164 -256 164 -66 -1 -158 -46 -137 -67 3 -4 27
4 52 16 160 80 336 -50 346 -256 4 -72 4 -72 -14 -45 -10 15 -18 36 -18 48 0
47 -33 127 -68 166 -59 66 -127 89 -211 72 -25 -5 -30 -11 -26 -25 15 -46 -39
-82 -80 -55 -30 20 -33 64 -8 103 43 65 204 85 300 38z m38 5 c3 -6 -1 -7 -9
-4 -18 7 -21 14 -7 14 6 0 13 -4 16 -10z m-1655 -20 c0 -5 -5 -10 -11 -10 -5
0 -7 5 -4 10 3 6 8 10 11 10 2 0 4 -4 4 -10z m1000 -10 c-6 -11 -12 -20 -14
-20 -2 0 -2 9 1 20 3 11 9 20 15 20 5 0 4 -9 -2 -20z m695 2 c-3 -3 -11 0 -18
7 -9 10 -8 11 6 5 10 -3 15 -9 12 -12z m-2531 -11 c3 -5 0 -11 -8 -14 -8 -3
-17 1 -20 9 -6 15 19 20 28 5z m133 -47 c26 -28 29 -44 11 -44 -8 0 -5 -7 6
-15 29 -22 25 -97 -7 -166 -15 -30 -58 -89 -96 -133 -91 -101 -128 -158 -148
-225 -19 -68 -13 -154 17 -215 30 -63 94 -132 140 -152 22 -10 40 -21 40 -25
0 -4 -18 -10 -40 -14 -34 -6 -46 -3 -75 19 -20 16 -32 32 -29 40 7 19 -31 91
-58 110 -12 9 -30 16 -40 16 -11 0 -20 11 -26 32 -7 27 -5 36 12 49 14 12 21
32 24 75 3 50 1 62 -17 78 -19 17 -19 21 -5 47 9 18 22 29 36 29 33 0 88 65
88 104 0 33 30 73 48 62 16 -10 71 33 77 61 4 15 20 55 36 87 32 66 34 78 17
109 -7 12 -13 31 -15 42 -3 19 -19 36 -59 62 -16 10 -14 11 10 2 16 -5 40 -21
53 -35z m97 20 c3 -8 2 -12 -4 -9 -6 3 -10 10 -10 16 0 14 7 11 14 -7z m166
-43 c-23 -44 -80 -63 -80 -27 0 20 40 67 64 76 25 9 34 -17 16 -49z m310 56
c0 -2 -10 -12 -22 -23 l-23 -19 19 23 c18 21 26 27 26 19z m1874 -22 c9 -14
15 -25 13 -25 -2 0 -13 11 -25 25 -12 14 -18 25 -13 25 5 0 16 -11 25 -25z
m-461 -57 c-11 -21 -18 -4 -14 30 l5 37 6 -30 c4 -16 5 -33 3 -37z m-1330 22
c-3 -12 -8 -19 -11 -16 -5 6 5 36 12 36 2 0 2 -9 -1 -20z m907 16 c0 -2 -8
-10 -17 -17 -16 -13 -17 -12 -4 4 13 16 21 21 21 13z m726 -41 c37 -29 78 -99
70 -120 -3 -9 0 -12 9 -8 8 3 12 10 8 16 -3 6 -1 7 5 3 15 -9 16 -62 2 -71 -6
-4 -7 1 -3 12 3 10 3 15 -2 11 -10 -10 -38 19 -30 32 16 27 -168 103 -210 86
-8 -3 -16 0 -19 7 -4 7 -4 2 -2 -11 4 -19 1 -23 -17 -21 -12 2 -33 -3 -47 -10
l-25 -12 23 20 c20 18 21 20 5 24 -14 4 -13 5 5 6 12 0 22 -3 22 -9 0 -5 5
-10 11 -10 5 0 7 4 4 10 -3 5 3 20 15 32 19 21 21 21 15 3 -7 -20 -6 -20 9 -1
9 11 16 26 16 34 0 24 95 8 136 -23z m-616 21 c0 -2 -6 -9 -14 -15 -11 -9 -16
-9 -22 0 -4 7 -3 9 4 5 6 -3 13 -2 17 4 6 10 15 14 15 6z m-1044 -54 c-17 -16
-18 -16 -5 5 7 12 15 20 18 17 3 -2 -3 -12 -13 -22z m1357 -55 c-153 -103
-130 -349 37 -397 25 -7 38 -5 58 8 18 12 27 13 29 5 4 -10 9 -10 26 0 12 7
25 16 29 22 4 5 10 6 14 3 3 -4 -1 -14 -10 -23 -9 -9 -16 -13 -16 -8 0 4 -4 3
-8 -3 -9 -14 -66 -29 -57 -14 3 5 1 10 -4 10 -6 0 -11 -4 -11 -9 0 -5 -22 -11
-48 -15 -63 -8 -141 15 -188 56 -39 35 -84 115 -84 151 0 20 4 23 35 19 41 -5
70 15 80 55 6 27 -11 83 -26 83 -5 0 -9 4 -9 9 0 5 22 14 50 21 47 11 100 54
100 81 0 5 11 2 25 -7 l24 -16 -46 -31z m-582 36 c13 -16 12 -17 -3 -4 -10 7
-18 15 -18 17 0 8 8 3 21 -13z m128 -19 c-6 -8 -15 -12 -18 -8 -3 4 0 9 7 11
6 3 9 10 6 15 -4 7 -2 8 5 4 9 -6 9 -11 0 -22z m-1089 12 c0 -2 -8 -10 -17
-17 -16 -13 -17 -12 -4 4 13 16 21 21 21 13z m171 -23 c-12 -20 -14 -14 -5 12
4 9 9 14 11 11 3 -2 0 -13 -6 -23z m614 -2 c3 -6 -5 -15 -17 -21 -21 -10 -21
-10 -6 3 10 8 15 17 11 20 -3 4 -4 7 0 7 3 0 8 -4 12 -9z m1046 -27 c57 -32
110 -92 141 -161 32 -73 37 -229 9 -320 -71 -233 -265 -383 -496 -383 -44 0
-107 -7 -139 -15 -35 -9 -64 -12 -73 -6 -36 20 -133 -36 -133 -78 0 -11 -10
-27 -22 -35 -18 -13 -24 -13 -42 -1 -28 20 -106 19 -135 -1 -21 -15 -25 -15
-66 15 -49 35 -57 38 -48 14 4 -10 -6 -5 -25 12 -24 21 -29 31 -20 37 9 6 8 8
-6 6 -10 -2 -25 7 -34 21 l-17 24 40 -25 c24 -16 39 -32 37 -42 -3 -19 14 -22
21 -3 3 9 7 9 18 0 29 -23 105 -34 161 -22 57 12 85 24 192 84 66 37 72 38
201 46 117 6 141 11 211 40 66 27 92 45 155 108 63 63 81 89 109 156 30 72 34
90 34 180 1 120 -21 182 -89 244 -90 83 -221 60 -255 -45 -18 -54 21 -123 79
-137 35 -9 87 17 106 52 20 39 25 39 25 1 0 -21 -11 -42 -34 -68 -32 -35 -38
-37 -94 -37 -46 0 -67 5 -88 21 -45 33 -67 70 -72 122 -9 103 47 186 153 224
41 15 144 0 196 -28z m-1871 -4 c-6 -11 -13 -20 -16 -20 -2 0 0 9 6 20 6 11
13 20 16 20 2 0 0 -9 -6 -20z m203 -10 c-3 -12 -8 -19 -11 -16 -5 6 5 36 12
36 2 0 2 -9 -1 -20z m570 -10 c-3 -11 -10 -23 -16 -27 -5 -3 -8 -2 -5 3 3 5 8
17 11 27 9 24 16 22 10 -3z m639 8 c-9 -9 -7 -15 6 -25 15 -13 14 -13 -6 -3
-19 9 -21 14 -11 26 6 8 14 14 17 14 3 0 1 -5 -6 -12z m-1859 -43 c-3 -9 -8
-14 -10 -11 -3 3 -2 9 2 15 9 16 15 13 8 -4z m1687 -5 c-6 -11 -13 -20 -16
-20 -3 0 -2 5 1 10 3 6 1 10 -5 10 -6 0 -8 5 -5 10 3 6 13 10 21 10 12 0 12
-4 4 -20z m-1280 -10 c-6 -11 -13 -20 -16 -20 -2 0 0 9 6 20 6 11 13 20 16 20
2 0 0 -9 -6 -20z m230 6 c0 -2 -7 -9 -15 -16 -13 -11 -14 -10 -9 4 5 14 24 23
24 12z m814 -11 c-4 -8 -7 -15 -9 -15 -2 0 -5 7 -9 15 -3 9 0 15 9 15 9 0 12
-6 9 -15z m-1283 -22 c-12 -20 -14 -14 -5 12 4 9 9 14 11 11 3 -2 0 -13 -6
-23z m1307 15 c-4 -19 90 -22 138 -5 l40 13 -1 -96 0 -96 -65 -1 c-38 0 -80
-7 -100 -17 -19 -9 -27 -14 -17 -11 9 2 17 2 17 0 0 -8 -57 -34 -63 -29 -6 7
12 65 25 79 5 6 4 -3 -1 -18 -14 -36 -14 -47 0 -47 5 0 8 4 5 9 -3 5 1 25 9
45 17 40 20 112 6 149 -6 14 -7 28 -4 31 10 9 13 7 11 -6z m771 -12 c163 -85
159 -383 -7 -558 -99 -104 -178 -136 -362 -147 l-125 -8 -123 -64 c-113 -59
-128 -64 -186 -64 -52 0 -75 6 -132 35 -74 38 -100 70 -106 130 -3 31 0 35 23
38 19 2 33 -4 47 -23 33 -41 88 -65 152 -65 45 0 66 7 115 35 142 83 162 90
278 93 70 3 119 -1 138 -8 35 -15 38 -34 4 -28 -29 6 -36 -17 -7 -24 40 -11
83 28 52 47 -19 11 -10 23 20 27 17 3 30 1 30 -3 0 -20 41 -30 74 -19 43 14
68 41 70 77 4 43 24 73 50 73 43 0 84 78 66 126 -6 16 -6 42 1 76 27 126 -48
248 -154 248 -34 0 -71 -20 -73 -39 -1 -6 -3 -13 -4 -16 -1 -3 -3 -10 -4 -17
-1 -15 -26 -23 -26 -8 0 20 30 69 52 84 28 20 100 21 137 2z m-1669 -9 c0 -2
-10 -12 -21 -23 -22 -19 -22 -19 -8 4 12 19 29 30 29 19z m1891 -14 c13 -16
12 -17 -3 -4 -17 13 -22 21 -14 21 2 0 10 -8 17 -17z m-666 -31 c-3 -3 -11 0
-18 7 -9 10 -8 11 6 5 10 -3 15 -9 12 -12z m440 -2 c-3 -4 4 -10 15 -13 12 -3
20 -14 20 -25 0 -12 5 -24 10 -27 6 -4 8 -11 5 -16 -4 -5 -2 -9 3 -9 7 0 8
-24 3 -49 -1 -2 -7 2 -14 8 -10 8 -14 7 -14 -3 0 -8 8 -13 19 -11 13 3 18 -2
18 -18 0 -14 -3 -18 -8 -10 -6 10 -14 9 -34 -1 -26 -14 -38 -12 -38 7 0 5 7 7
15 3 9 -3 16 1 16 9 1 8 2 18 4 23 1 4 5 18 9 32 8 30 -9 84 -24 75 -5 -3 -10
-3 -11 2 0 4 -2 16 -4 26 -2 9 1 15 6 11 5 -3 7 -9 4 -14z m-37 2 c7 -5 11
-24 10 -44 -2 -20 -5 -35 -7 -33 -2 3 -16 -2 -30 -10 -58 -30 -112 42 -59 79
24 17 65 21 86 8z m-2058 -12 c0 -5 -5 -10 -11 -10 -5 0 -7 5 -4 10 3 6 8 10
11 10 2 0 4 -4 4 -10z m2350 -25 c0 -5 -5 -3 -10 5 -5 8 -10 20 -10 25 0 6 5
3 10 -5 5 -8 10 -19 10 -25z m-2388 -18 c-12 -13 -22 -27 -22 -31 0 -10 -30
-40 -35 -35 -4 5 64 89 73 89 3 0 -4 -10 -16 -23z m56 -51 c-3 -45 -32 -72
-48 -46 -15 23 -12 59 7 91 17 28 19 28 31 12 7 -10 12 -36 10 -57z m2372 28
c-11 -25 -20 -53 -20 -61 0 -31 -11 -5 -16 38 -5 41 -4 43 11 24 8 -11 14 -15
13 -10 -2 10 20 55 27 55 2 0 -5 -21 -15 -46z m-2691 -24 c-12 -34 -54 -59
-71 -42 -8 8 -7 18 6 37 9 14 14 31 10 37 -4 7 -3 8 4 4 7 -4 20 -3 29 3 24
13 34 -4 22 -39z m1158 39 c-14 -8 -22 -8 -30 0 -8 8 -3 11 19 11 25 -1 27 -2
11 -11z m-490 -21 c-3 -8 -6 -5 -6 6 -1 11 2 17 5 13 3 -3 4 -12 1 -19z m453
2 c0 -5 -20 -23 -45 -40 -25 -17 -43 -35 -40 -40 3 -5 1 -11 -5 -15 -6 -4 -8
-9 -6 -13 2 -4 -3 -13 -10 -20 -13 -12 -14 -9 -8 14 11 44 44 93 73 109 31 17
41 18 41 5z m33 -32 c-8 -24 -19 -48 -24 -54 -10 -12 -78 -29 -85 -21 -2 2 18
18 46 35 31 19 52 40 56 56 3 14 10 26 14 26 4 0 1 -19 -7 -42z m674 20 c-3
-8 -6 -5 -6 6 -1 11 2 17 5 13 3 -3 4 -12 1 -19z m433 -3 c11 -13 10 -14 -4
-9 -9 3 -16 10 -16 15 0 13 6 11 20 -6z m-830 -15 c0 -5 -5 -10 -11 -10 -5 0
-7 5 -4 10 3 6 8 10 11 10 2 0 4 -4 4 -10z m-1186 -16 c4 -10 2 -13 -6 -8 -12
8 -10 -4 16 -71 8 -22 15 -56 16 -76 0 -53 38 -117 84 -143 55 -31 55 -42 -2
-50 -149 -20 -259 75 -223 194 10 33 62 118 95 157 14 16 13 16 20 -3z m1093
-15 c-9 -6 -14 -16 -11 -22 5 -8 2 -7 -7 1 -12 11 -12 14 1 22 8 5 20 10 25
10 6 -1 2 -5 -8 -11z m177 -93 c96 -89 107 -103 104 -130 -2 -24 -8 -32 -27
-34 -18 -3 -38 10 -82 54 -32 32 -62 55 -65 51 -8 -7 79 -96 112 -115 11 -7
13 -12 6 -12 -8 0 -40 25 -73 57 -43 41 -58 61 -53 75 5 17 -5 23 -29 19 -5
-1 -6 3 -3 8 3 5 -1 14 -10 21 -8 7 -24 26 -36 42 -19 28 -19 30 -2 49 10 11
25 19 35 17 9 -2 65 -48 123 -102z m219 97 c-7 -2 -19 -2 -25 0 -7 3 -2 5 12
5 14 0 19 -2 13 -5z m102 -3 c3 -6 -1 -7 -9 -4 -18 7 -21 14 -7 14 6 0 13 -4
16 -10z m-354 -27 c13 -16 12 -17 -3 -4 -10 7 -18 15 -18 17 0 8 8 3 21 -13z
m690 0 c13 -16 12 -17 -3 -4 -10 7 -18 15 -18 17 0 8 8 3 21 -13z m-2251 3 c0
-2 -8 -10 -17 -17 -16 -13 -17 -12 -4 4 13 16 21 21 21 13z m780 -80 c-19 -38
-24 -44 -34 -31 -6 8 -20 21 -31 30 -19 14 -18 15 8 4 15 -7 27 -17 27 -23 0
-6 6 -2 12 9 15 26 17 66 5 85 -6 8 -1 6 12 -6 l22 -21 -21 -47z m-110 39 l25
-30 -27 24 c-16 14 -28 29 -28 34 0 6 1 8 3 6 1 -2 13 -17 27 -34z m-440 6
c-5 -11 -15 -23 -21 -27 -6 -3 -3 5 6 20 20 30 30 35 15 7z m1406 -3 c-12 -17
-13 -25 -3 -37 7 -10 3 -9 -10 3 l-22 18 22 19 c29 24 31 24 13 -3z m-201 -18
c3 -6 -1 -7 -9 -4 -9 3 -16 4 -16 2 0 -3 46 -51 103 -108 56 -57 95 -98 86
-91 -13 9 -19 8 -29 -4 -17 -20 -29 -19 -58 8 -21 18 -24 19 -19 4 4 -11 3
-16 -4 -12 -5 4 -8 12 -6 18 3 7 -18 35 -45 63 -43 45 -49 54 -39 72 13 25 14
35 2 28 -5 -4 -7 3 -4 14 6 21 28 27 38 10z m-1449 -88 c8 -39 -9 -82 -31 -82
-19 0 -29 41 -21 83 4 17 7 37 8 44 3 23 38 -12 44 -45z m2751 26 c-3 -8 -6
-5 -6 6 -1 11 2 17 5 13 3 -3 4 -12 1 -19z m-1056 -5 c13 -16 12 -17 -3 -4
-10 7 -18 15 -18 17 0 8 8 3 21 -13z m-382 -9 c-11 -13 -9 -14 14 -9 22 6 37
-4 112 -76 100 -96 110 -111 95 -139 -20 -37 -49 -22 -146 72 -82 80 -94 96
-89 117 6 22 5 23 -12 11 -10 -8 -7 -2 6 13 26 28 43 38 20 11z m71 6 c0 -5
-2 -10 -4 -10 -3 0 -8 5 -11 10 -3 6 -1 10 4 10 6 0 11 -4 11 -10z m1160 -13
c0 -26 -26 -67 -42 -67 -10 0 -7 29 7 64 6 15 5 17 -5 11 -8 -5 -11 -4 -7 1 3
5 15 10 26 11 15 1 21 -4 21 -20z m-1790 -17 c-6 -11 -15 -20 -20 -20 -6 0 -2
9 7 20 10 11 19 20 21 20 1 0 -2 -9 -8 -20z m1288 -1 c3 -12 2 -12 -6 0 -8 11
-10 11 -15 0 -4 -10 -6 -8 -6 4 -1 21 21 18 27 -4z m-300 -6 c-6 -7 -12 -13
-13 -13 -2 0 -5 6 -8 13 -3 7 3 13 14 13 13 0 15 -3 7 -13z m130 -8 c12 -66
103 -89 143 -36 l21 28 70 -36 c69 -35 73 -36 169 -34 150 4 157 5 151 25 -3
12 4 21 23 28 33 13 32 13 32 -5 0 -8 -4 -15 -8 -15 -4 0 -16 -15 -28 -32 -14
-22 -21 -27 -21 -16 0 16 -3 16 -42 2 -23 -8 -52 -23 -63 -34 -35 -33 -73 -40
-213 -40 -154 -1 -187 -9 -316 -88 -54 -32 -80 -42 -113 -42 -53 0 -107 21
-125 49 -15 24 -33 28 -24 6 4 -12 2 -13 -14 -2 -14 8 -16 13 -8 16 24 7 48
34 49 55 1 18 2 18 6 3 3 -10 -1 -25 -8 -33 -6 -8 -9 -18 -5 -22 12 -11 36 29
36 58 0 37 44 68 90 63 46 -6 80 24 80 72 0 27 5 35 28 44 43 16 86 9 90 -14z
m-428 -20 c13 -14 21 -25 18 -25 -2 0 -15 11 -28 25 -13 14 -21 25 -18 25 2 0
15 -11 28 -25z m-720 2 c0 -2 -10 -12 -22 -23 l-23 -19 19 23 c18 21 26 27 26
19z m1415 -17 c3 -6 -1 -7 -9 -4 -18 7 -21 14 -7 14 6 0 13 -4 16 -10z m-831
-19 c17 -19 17 -19 -2 -14 -12 3 -23 11 -26 19 -8 20 8 17 28 -5z m939 -8 c-7
-2 -19 -2 -25 0 -7 3 -2 5 12 5 14 0 19 -2 13 -5z m-2280 -39 c5 -30 -8 -20
-18 15 -4 15 -3 21 3 17 5 -3 12 -17 15 -32z m1395 -82 c-13 -14 -30 -33 -38
-42 -8 -9 -40 -43 -70 -76 -31 -32 -143 -155 -249 -271 -106 -117 -195 -213
-198 -213 -2 0 -23 18 -45 41 l-40 40 19 22 c11 12 114 125 229 251 115 126
233 257 263 292 l54 62 49 -41 48 -40 -22 -25z m-1117 81 c13 -16 12 -17 -3
-4 -10 7 -18 15 -18 17 0 8 8 3 21 -13z m1100 0 c13 -16 12 -17 -3 -4 -10 7
-18 15 -18 17 0 8 8 3 21 -13z m259 3 c0 -2 -8 -10 -17 -17 -16 -13 -17 -12
-4 4 13 16 21 21 21 13z m-1072 -43 c-31 -17 -43 -16 -28 2 6 8 9 19 5 25 -4
6 4 6 20 -2 l26 -12 -23 -13z m82 33 c0 -2 -7 -7 -16 -10 -8 -3 -12 -2 -9 4 6
10 25 14 25 6z m780 -31 c13 -14 21 -25 18 -25 -2 0 -15 11 -28 25 -13 14 -21
25 -18 25 2 0 15 -11 28 -25z m170 3 c0 -6 -6 -5 -15 2 -8 7 -15 14 -15 16 0
2 7 1 15 -2 8 -4 15 -11 15 -16z m860 3 c0 -23 -45 -61 -71 -61 -31 0 -22 36
14 59 40 26 57 26 57 2z m253 -5 c-10 -13 -20 -22 -22 -20 -4 4 29 44 36 44 2
0 -4 -11 -14 -24z m-2683 -35 c0 -6 -4 -12 -8 -15 -5 -3 -9 1 -9 9 0 8 4 15 9
15 4 0 8 -4 8 -9z m69 -47 c26 -33 27 -64 3 -64 -31 0 -79 68 -68 96 7 19 36
5 65 -32z m2019 39 c-10 -2 -26 -2 -35 0 -10 3 -2 5 17 5 19 0 27 -2 18 -5z
m157 -2 c-3 -2 -16 -6 -28 -8 -15 -2 -18 0 -9 5 14 9 45 12 37 3z m393 -20
c-7 -12 -16 -21 -21 -21 -4 0 0 11 10 24 22 29 30 27 11 -3z m-1211 2 c4 -10
-28 -46 -201 -233 -28 -30 -125 -135 -215 -233 -137 -148 -166 -176 -174 -162
-7 13 1 27 35 64 55 58 127 137 353 384 99 108 184 196 189 194 6 -2 11 -8 13
-14z m538 7 c-3 -5 -12 -10 -18 -10 -7 0 -6 4 3 10 19 12 23 12 15 0z m-491
-30 c-31 -12 -46 -36 -39 -61 5 -14 4 -19 -4 -15 -19 12 -12 -22 13 -72 28
-54 77 -103 192 -190 79 -61 138 -127 128 -144 -7 -11 -72 -38 -91 -38 -8 0
-25 13 -39 30 -14 16 -57 50 -95 76 -114 75 -166 121 -204 176 l-35 53 60 60
c54 54 77 87 50 70 -19 -12 -10 5 20 35 17 17 28 36 24 42 -4 5 4 4 17 -2 22
-13 23 -13 3 -20z m-804 -15 c-7 -8 -17 -15 -23 -15 -6 0 -2 7 9 15 25 19 30
19 14 0z m1940 1 c0 -2 -21 -20 -47 -41 l-48 -37 43 41 c41 38 52 46 52 37z
m-770 -10 c0 -2 -8 -10 -17 -17 -16 -13 -17 -12 -4 4 13 16 21 21 21 13z
m-220 -62 c0 -7 -58 25 -65 36 -3 5 10 1 29 -11 20 -12 36 -23 36 -25z m-1065
16 c-3 -5 -12 -10 -18 -10 -7 0 -6 4 3 10 19 12 23 12 15 0z m-92 -27 c-7 -2
-19 -2 -25 0 -7 3 -2 5 12 5 14 0 19 -2 13 -5z m906 4 c-2 -1 -15 -11 -29 -22
l-25 -20 19 23 c11 12 24 22 29 22 6 0 8 -1 6 -3z m-1054 -17 c3 -5 1 -10 -4
-10 -6 0 -11 5 -11 10 0 6 2 10 4 10 3 0 8 -4 11 -10z m63 3 c-10 -2 -26 -2
-35 0 -10 3 -2 5 17 5 19 0 27 -2 18 -5z m-90 -8 c-3 -3 -20 -10 -38 -15 -19
-5 -29 -6 -24 -1 12 12 74 27 62 16z m513 -29 c-12 -18 -21 -40 -21 -49 0 -8
-18 -31 -41 -51 -35 -30 -44 -33 -64 -24 -32 14 -89 2 -122 -26 -34 -28 -70
-35 -100 -18 -47 26 -126 9 -144 -32 -7 -14 -21 -26 -33 -28 -14 -2 -20 -9
-18 -21 3 -17 2 -17 -17 2 -24 24 -51 19 -86 -17 -30 -30 -42 -69 -28 -91 13
-21 -2 -65 -33 -96 -32 -32 -32 -85 0 -122 19 -22 26 -25 38 -15 12 9 15 9 15
-3 0 -8 -5 -11 -10 -8 -6 4 -7 -3 -3 -18 7 -23 12 -50 15 -77 2 -24 53 -62 82
-62 29 0 38 -13 19 -25 -5 -3 -10 -11 -10 -16 0 -6 5 -7 12 -3 7 4 8 3 4 -4
-9 -16 -35 -2 -88 46 -80 72 -118 163 -118 278 0 140 64 246 184 303 60 29
115 41 273 60 134 17 251 68 290 128 24 36 27 27 4 -11z m-632 8 c4 3 12 1 19
-3 7 -4 -1 -13 -24 -23 -33 -15 -35 -15 -21 0 8 10 13 23 11 30 -1 7 0 8 3 2
2 -5 8 -8 12 -6z m2291 12 c0 -2 -9 -6 -20 -9 -11 -3 -18 -1 -14 4 5 9 34 13
34 5z m-60 -20 c0 -2 -7 -7 -16 -10 -8 -3 -12 -2 -9 4 6 10 25 14 25 6z
m-1420 -35 c-5 -11 -15 -23 -22 -27 -7 -5 -8 -2 -3 7 21 37 44 55 25 20z m303
-11 c-8 -17 -19 -27 -25 -24 -5 4 0 16 13 30 29 31 31 30 12 -6z m1054 24 c-3
-3 -12 -4 -19 -1 -8 3 -5 6 6 6 11 1 17 -2 13 -5z m-322 -35 c9 -14 -31 -56
-65 -67 -37 -13 -56 -1 -41 27 21 38 91 65 106 40z m-1951 -18 c-10 -10 -21
-16 -24 -14 -3 3 4 11 14 19 28 20 33 17 10 -5z m1236 -4 c0 -25 59 -95 112
-134 172 -127 208 -154 208 -162 0 -5 -19 -7 -42 -4 -32 5 -39 3 -33 -7 5 -9
4 -11 -3 -6 -7 4 -22 9 -33 11 -12 3 -24 7 -28 10 -3 3 9 4 27 0 36 -6 37 -4
18 34 -19 36 -58 61 -95 61 -39 0 -113 81 -131 144 -9 34 -16 43 -28 38 -15
-5 -15 -4 -2 11 18 20 30 21 30 4z m-500 -17 c0 -11 -4 -20 -9 -20 -7 0 -8 17
-2 38 4 10 11 -2 11 -18z m430 -4 c0 -2 -7 -7 -16 -10 -8 -3 -12 -2 -9 4 6 10
25 14 25 6z m804 -11 c6 -16 -57 -64 -88 -69 -9 -1 -45 -31 -80 -65 l-64 -64
-24 37 c-23 36 -38 46 -38 25 0 -6 -7 -4 -15 5 -20 20 -19 21 14 21 16 0 27
-3 24 -7 -10 -18 46 -6 63 13 24 27 67 49 94 49 12 0 18 5 15 10 -3 6 -1 10 4
10 21 0 26 3 56 26 36 28 32 27 39 9z m-760 -57 c34 -92 128 -188 224 -229 47
-21 178 -27 167 -9 -7 11 -4 12 37 15 18 1 25 -2 21 -12 -4 -11 -26 -18 -36
-10 -2 1 -11 -4 -20 -11 -10 -8 -44 -13 -92 -14 -63 0 -85 5 -133 28 -72 35
-148 111 -190 190 -35 67 -38 84 -20 102 15 15 20 9 42 -50z m-374 49 c0 -2
-15 -16 -32 -33 l-33 -29 29 33 c28 30 36 37 36 29z m-925 -45 c-16 -15 -22
-18 -14 -7 24 33 34 43 38 39 3 -3 -8 -17 -24 -32z m809 16 c11 -42 6 -54 -44
-110 l-50 -56 -50 19 c-166 63 -356 -39 -361 -194 -3 -79 30 -90 65 -23 12 22
38 53 59 70 34 27 46 31 102 31 35 0 67 -3 71 -8 4 -4 -9 -25 -30 -46 -41 -42
-49 -65 -33 -96 9 -18 9 -19 -7 -6 -9 8 -15 20 -12 28 8 20 -38 27 -72 9 -19
-10 -33 -26 -37 -45 -3 -16 -15 -37 -26 -47 -10 -9 -19 -27 -19 -39 0 -21 -38
-75 -53 -75 -4 0 -13 15 -21 34 -8 18 -26 42 -41 52 -55 39 -66 53 -55 74 15
27 12 103 -4 125 -17 23 -3 61 25 70 25 8 69 62 69 85 0 28 15 33 96 34 57 1
77 6 94 21 18 16 37 20 104 20 78 0 105 8 144 40 79 65 77 64 86 33z m416 18
c0 -2 -8 -10 -17 -17 -16 -13 -17 -12 -4 4 13 16 21 21 21 13z m415 -16 c16
-17 16 -20 3 -15 -9 4 -19 13 -22 21 -7 19 -2 18 19 -6z m655 -6 c112 -61 121
-215 15 -260 -41 -17 -48 -17 -40 -4 3 6 1 10 -4 10 -15 0 -14 -27 2 -33 6 -3
2 -4 -9 -4 -15 1 -20 6 -16 16 3 9 1 12 -6 7 -6 -3 -13 -2 -17 4 -3 5 -5 10
-3 10 2 0 18 4 36 9 20 6 30 6 27 0 -12 -19 12 -8 35 16 56 60 15 171 -72 193
-104 26 -205 -37 -311 -193 -56 -82 -152 -175 -212 -205 -109 -54 -259 -33
-366 51 -26 21 -39 40 -44 66 -3 21 -31 91 -61 156 -51 108 -60 147 -36 147 5
0 24 -29 41 -65 70 -141 191 -226 332 -233 112 -6 162 21 314 171 141 138 188
166 284 167 50 0 73 -6 111 -26z m25 16 c3 -6 -1 -7 -9 -4 -18 7 -21 14 -7 14
6 0 13 -4 16 -10z m-1625 -19 c0 -10 -46 -30 -79 -33 -32 -4 -37 16 -9 30 28
13 88 15 88 3z m1126 -6 c19 -15 19 -15 0 -30 -23 -17 -82 -20 -91 -4 -4 6
-13 8 -19 6 -7 -3 -19 -1 -27 5 -12 8 -12 9 1 5 8 -2 26 4 39 14 29 23 70 24
97 4z m535 -2 c13 -16 12 -17 -3 -4 -17 13 -22 21 -14 21 2 0 10 -8 17 -17z
m-1893 -35 c4 -23 -68 -45 -100 -31 l-22 9 23 23 c27 27 94 27 99 -1z m242 18
c0 -2 -7 -7 -16 -10 -8 -3 -12 -2 -9 4 6 10 25 14 25 6z m462 -18 c-3 -12 -1
-19 5 -15 5 3 10 0 10 -8 0 -8 -4 -12 -9 -9 -13 8 -11 2 32 -85 57 -117 81
-195 87 -283 11 -152 -45 -298 -156 -409 -95 -95 -164 -127 -331 -154 -81 -12
-86 -12 -105 6 -26 25 -16 32 80 55 108 26 207 75 262 131 112 113 157 276
118 428 -18 68 -74 192 -98 217 -15 14 -15 17 -1 22 9 4 13 2 8 -5 -15 -25 14
-1 56 45 35 38 40 47 23 42 l-23 -7 23 25 c27 31 26 31 19 4z m-592 8 c0 -2
-7 -7 -16 -10 -8 -3 -12 -2 -9 4 6 10 25 14 25 6z m-60 -10 c0 -2 -7 -7 -16
-10 -8 -3 -12 -2 -9 4 6 10 25 14 25 6z m1743 -20 c18 -7 41 -25 50 -39 18
-28 23 -72 8 -81 -5 -4 -8 5 -6 19 1 14 -2 25 -8 25 -6 0 -7 3 -4 7 4 3 -5 15
-20 25 -25 16 -25 18 -8 19 l20 0 -20 9 c-35 15 -94 11 -133 -9 -44 -23 -93
-73 -154 -161 -56 -79 -108 -130 -168 -164 -25 -14 -39 -26 -32 -26 22 0 73
30 121 73 40 36 42 37 15 7 -17 -19 -29 -41 -26 -49 2 -8 0 -11 -6 -7 -5 3
-44 -10 -86 -29 -85 -39 -90 -40 -80 -23 5 7 3 8 -7 2 -8 -5 -25 -10 -39 -12
-14 -1 -30 -9 -36 -17 -12 -16 -29 -21 -19 -6 3 5 -5 12 -17 14 -19 4 -18 4 5
6 47 2 178 59 226 98 24 20 81 87 127 149 83 112 114 142 176 169 42 18 80 19
121 1z m141 -12 c3 -8 2 -12 -4 -9 -6 3 -10 10 -10 16 0 14 7 11 14 -7z
m-1274 -8 c0 -2 -8 -10 -17 -17 -16 -13 -17 -12 -4 4 13 16 21 21 21 13z
m1108 -3 c-10 -2 -26 -2 -35 0 -10 3 -2 5 17 5 19 0 27 -2 18 -5z m-805 -56
c-3 -4 6 -5 20 -2 17 5 33 -1 56 -21 42 -35 32 -43 -16 -13 -21 13 -45 22 -55
21 -9 -2 -19 6 -23 18 -4 11 -11 17 -17 14 -7 -4 -8 -2 -4 4 4 7 2 12 -3 12
-6 0 -11 5 -11 11 0 6 13 0 29 -13 15 -13 26 -27 24 -31z m-1173 20 c0 -24
-47 -77 -68 -77 -19 0 -14 45 9 74 26 33 59 35 59 3z m-323 -9 c-3 -8 -6 -5
-6 6 -1 11 2 17 5 13 3 -3 4 -12 1 -19z m1864 -5 c13 -16 12 -17 -3 -4 -17 13
-22 21 -14 21 2 0 10 -8 17 -17z m34 -48 c-28 -24 -54 -44 -60 -45 -5 0 3 11
19 23 20 16 27 28 21 37 -6 10 -4 12 7 7 9 -3 24 1 35 8 37 29 26 14 -22 -30z
m-1172 9 c68 -23 140 -92 179 -172 30 -61 33 -74 32 -157 0 -76 -4 -99 -27
-145 -14 -30 -43 -72 -64 -92 -43 -41 -139 -92 -195 -102 -32 -6 -41 -3 -70
23 -43 38 -29 56 50 64 138 12 232 112 232 244 0 72 -47 171 -112 235 -65 63
-132 80 -215 54 -56 -18 -130 -75 -106 -83 8 -3 5 -15 -9 -39 -23 -40 -27 -39
-32 4 -2 22 1 32 10 32 8 0 11 -7 8 -17 -5 -15 -4 -15 4 -3 6 8 9 18 6 22 -7
12 21 60 53 90 60 57 164 74 256 42z m81 -9 c3 -10 -3 -9 -25 2 -35 18 -37 22
-5 16 14 -3 27 -11 30 -18z m510 -1 c3 -8 2 -12 -4 -9 -6 3 -10 10 -10 16 0
14 7 11 14 -7z m-885 -54 c-18 -22 -34 -40 -36 -40 -6 0 39 64 52 72 19 14 16
8 -16 -32z m713 -13 c54 -105 63 -137 63 -237 0 -110 -17 -167 -75 -251 -54
-79 -113 -116 -269 -169 -108 -37 -135 -50 -133 -63 2 -9 -1 -17 -6 -17 -12 0
-12 32 0 47 5 7 40 22 76 33 57 19 117 44 241 103 13 7 30 26 37 44 8 18 21
49 29 68 8 19 21 35 29 35 18 0 46 59 46 98 0 16 -7 35 -16 43 -11 9 -14 22
-10 46 3 18 9 49 12 68 9 49 -11 89 -53 111 -23 12 -39 29 -44 47 -4 15 -4 25
1 22 4 -3 13 2 20 10 19 22 23 19 52 -38z m1238 49 c0 -3 -4 -8 -10 -11 -5 -3
-10 -1 -10 4 0 6 5 11 10 11 6 0 10 -2 10 -4z m-2120 -10 c0 -3 -4 -8 -10 -11
-5 -3 -10 -1 -10 4 0 6 5 11 10 11 6 0 10 -2 10 -4z m590 -16 c0 -5 -2 -10 -4
-10 -3 0 -8 5 -11 10 -3 6 -1 10 4 10 6 0 11 -4 11 -10z m1250 6 c0 -2 -8 -10
-17 -17 -16 -13 -17 -12 -4 4 13 16 21 21 21 13z m-1055 -25 c-3 -6 -16 -16
-28 -22 -20 -11 -20 -9 3 13 25 24 38 29 25 9z m689 11 c3 -5 -1 -9 -9 -9 -8
0 -12 4 -9 9 3 4 7 8 9 8 2 0 6 -4 9 -8z m-1024 -27 c0 -1 -6 -8 -14 -15 -12
-9 -15 -8 -13 8 0 12 6 18 14 15 7 -3 13 -6 13 -8z m1340 -25 c-12 -16 -24
-30 -26 -30 -3 0 4 14 16 30 12 17 24 30 26 30 3 0 -4 -13 -16 -30z m-1290
-19 c9 -9 4 -8 -12 2 -36 22 -35 15 3 -38 l31 -44 -38 -44 -38 -44 -48 41 -48
41 44 45 c23 25 49 52 57 61 10 12 17 13 24 5 5 -6 17 -17 25 -25z m294 -13
c-11 -35 7 -97 36 -124 30 -29 30 -46 -3 -102 -14 -24 -18 -44 -14 -74 6 -45
-6 -78 -28 -78 -19 0 -85 -64 -85 -83 0 -20 -32 -37 -150 -82 -86 -33 -170
-80 -170 -95 0 -16 -34 -20 -50 -5 -9 8 -20 12 -25 8 -4 -5 -5 -2 -1 5 4 7 11
10 16 7 4 -3 21 10 37 28 17 19 43 37 61 40 107 21 212 103 262 204 32 63 34
75 34 168 0 59 -4 108 -11 120 -10 17 -6 26 29 62 32 33 45 40 55 31 8 -6 11
-19 7 -30z m87 -29 c13 -25 8 -71 -8 -76 -18 -6 -47 46 -46 83 1 19 -3 34 -8
34 -5 0 -9 5 -9 11 0 14 58 -28 71 -52z m-917 35 c30 -29 9 -110 -22 -90 -15
9 -21 57 -11 83 10 27 13 28 33 7z m434 -4 c-7 -11 -19 -22 -28 -25 -8 -4 -4
5 9 19 29 31 36 33 19 6z m712 -25 c0 -5 -5 -3 -10 5 -5 8 -10 20 -10 25 0 6
5 3 10 -5 5 -8 10 -19 10 -25z m-427 9 c3 -3 3 -13 0 -21 -5 -12 -7 -12 -14
-1 -15 23 -4 40 14 22z m457 -54 c0 -5 -8 -10 -17 -10 -15 0 -16 2 -3 10 19
12 20 12 20 0z m-574 -33 c15 -44 7 -142 -14 -182 -35 -68 -80 -102 -167 -125
-16 -5 -45 -13 -63 -19 -19 -5 -30 -6 -27 0 4 5 14 9 24 9 10 0 24 7 31 15 7
8 21 15 31 15 11 0 27 8 37 18 9 9 30 22 46 27 64 22 118 165 82 216 l-16 23
0 -26 c0 -35 -30 -71 -53 -63 -25 10 -22 18 27 63 33 30 41 43 32 52 -8 8 -7
10 6 5 10 -4 20 -17 24 -28z m-170 -70 c89 -86 96 -95 85 -115 -6 -12 -20 -22
-31 -22 -24 0 -200 166 -200 189 0 20 19 41 37 41 7 0 56 -42 109 -93z m-678
48 c-3 -3 -9 2 -12 12 -6 14 -5 15 5 6 7 -7 10 -15 7 -18z m1447 16 c17 -28
140 -71 202 -71 l43 0 -2 -39 c-2 -52 -15 -67 -66 -74 -24 -3 -52 -13 -63 -23
-18 -16 -21 -16 -58 1 -71 31 -85 55 -86 140 0 52 4 75 12 75 6 0 14 -4 18 -9z
m515 -38 c-1 -131 -98 -296 -209 -353 -85 -43 -204 -44 -286 -2 -53 26 -102
71 -107 97 -3 13 -2 22 3 19 4 -2 12 3 17 12 9 15 13 14 44 -9 41 -32 109 -57
152 -57 121 0 239 110 254 235 4 39 8 43 41 53 20 6 45 18 56 26 30 23 35 20
35 -21z m-363 -9 c-5 -5 -57 13 -57 20 0 3 14 0 31 -6 16 -6 28 -12 26 -14z
m-1073 0 c5 -14 4 -15 -9 -4 -17 14 -19 20 -6 20 5 0 12 -7 15 -16z m199 -17
c4 3 7 4 7 0 0 -17 -20 -14 -36 6 -19 22 -19 22 2 4 11 -9 24 -14 27 -10z
m103 -9 c-3 -13 -5 -25 -6 -28 -2 -3 -2 -8 -1 -12 0 -5 -2 -7 -6 -7 -19 3 -27
-2 -16 -9 10 -7 10 -11 0 -23 -6 -8 -11 -12 -9 -10 1 2 -5 15 -14 28 -14 23
-14 25 5 30 12 3 21 9 21 15 0 8 21 37 27 38 2 0 1 -10 -1 -22z m-528 5 c-2
-5 7 -18 20 -30 22 -23 30 -53 13 -53 -5 0 -21 14 -35 31 -21 24 -24 34 -15
45 13 15 20 18 17 7z m297 -75 c58 -55 82 -85 75 -92 -10 -10 -15 -7 -132 103
-52 49 -64 71 -38 71 5 0 48 -37 95 -82z m1209 55 c-20 -89 -82 -169 -153
-199 -72 -30 -177 -8 -230 49 -32 35 -23 55 12 27 45 -36 148 -72 185 -65 35
6 76 40 67 54 -5 8 24 41 74 84 13 10 21 29 21 47 0 20 5 30 15 30 12 0 14 -7
9 -27z m-44 3 c0 -16 -42 -66 -55 -66 -4 0 -3 6 2 13 6 6 13 24 17 40 7 28 36
38 36 13z m217 -18 c-3 -7 -5 -2 -5 12 0 14 2 19 5 13 2 -7 2 -19 0 -25z
m-1497 2 c0 -5 -2 -10 -4 -10 -3 0 -8 5 -11 10 -3 6 -1 10 4 10 6 0 11 -4 11
-10z m-442 -25 c-3 -3 -9 2 -12 12 -6 14 -5 15 5 6 7 -7 10 -15 7 -18z m1132
-24 c0 -44 -25 -75 -41 -50 -16 24 8 89 32 89 5 0 9 -17 9 -39z m220 -28 c-11
-17 -11 -17 -6 0 3 10 7 28 7 40 2 22 2 22 6 0 2 -12 -1 -30 -7 -40z m-1015
38 c3 -5 1 -12 -5 -16 -5 -3 -10 1 -10 9 0 18 6 21 15 7z m147 -30 l43 -40
-26 -28 c-14 -15 -48 -52 -75 -81 -27 -30 -157 -171 -289 -315 -160 -174 -247
-262 -260 -262 -30 0 -30 37 0 65 28 27 32 40 11 40 -18 0 -66 -61 -66 -83 0
-16 45 -57 63 -57 14 0 96 84 352 365 314 342 308 336 324 326 17 -11 3 -30
-102 -141 -74 -77 -214 -228 -418 -450 -103 -112 -120 -125 -152 -128 -30 -3
-43 2 -67 27 -34 34 -39 73 -13 111 15 23 46 57 213 235 36 39 112 122 170
185 58 63 107 117 110 120 3 3 34 38 69 78 35 39 65 72 67 72 1 0 22 -18 46
-39z m-118 -6 c-4 -8 -9 -15 -13 -15 -4 0 -8 7 -8 15 0 8 6 15 13 15 8 0 11
-6 8 -15z m157 -2 c13 -16 12 -17 -3 -4 -10 7 -18 15 -18 17 0 8 8 3 21 -13z
m1130 0 c-22 -42 -61 -73 -91 -73 -44 0 -37 17 13 32 23 6 51 22 61 35 23 27
30 30 17 6z m-1602 -27 c-3 -3 -11 5 -18 17 -13 21 -12 21 5 5 10 -10 16 -20
13 -22z m1362 7 c13 -16 12 -17 -3 -4 -17 13 -22 21 -14 21 2 0 10 -8 17 -17z
m-741 -25 c0 -6 -6 -5 -15 2 -8 7 -15 14 -15 16 0 2 7 1 15 -2 8 -4 15 -11 15
-16z m-52 -34 c2 -1 -3 -4 -10 -7 -8 -2 -19 6 -25 20 -12 25 -12 25 10 7 12
-10 23 -19 25 -20z m732 32 c0 -3 -4 -8 -10 -11 -5 -3 -10 -1 -10 4 0 6 5 11
10 11 6 0 10 -2 10 -4z m523 -41 c-3 -9 -8 -14 -10 -11 -3 3 -2 9 2 15 9 16
15 13 8 -4z m-820 -20 c-3 -9 -8 -14 -10 -11 -3 3 -2 9 2 15 9 16 15 13 8 -4z
m292 -76 c38 -23 49 -37 13 -18 -50 26 -76 52 -71 67 5 12 8 11 14 -7 5 -12
24 -31 44 -42z m-320 21 c-30 -31 -45 -38 -45 -19 0 16 40 49 58 49 11 0 7 -9
-13 -30z m-175 17 c0 -2 -15 -13 -32 -26 l-33 -22 28 25 c26 24 37 31 37 23z
m-621 -10 c-2 -1 -12 -9 -22 -16 -15 -12 -17 -12 -11 3 3 9 13 16 22 16 8 0
13 -1 11 -3z m1576 -17 c-3 -5 -20 -19 -38 -30 -32 -22 -32 -22 3 9 37 32 45
37 35 21z m-1274 -37 l24 -27 -29 22 c-45 34 -44 16 1 -25 l41 -38 -25 -32
c-30 -38 -25 -60 19 -93 29 -21 33 -22 57 -7 14 9 26 25 26 36 0 11 11 28 25
37 l25 16 -23 -21 -23 -20 48 -43 c26 -24 67 -61 90 -83 l42 -40 -74 -80 -75
-79 -30 29 c-22 21 -33 26 -38 18 -6 -9 -11 -7 -19 6 -10 16 -7 23 20 47 l32
29 -28 -31 c-15 -17 -24 -33 -21 -37 11 -10 65 64 56 77 -11 18 -88 86 -98 86
-4 0 -21 -12 -36 -27 l-28 -27 -43 42 c-49 48 -45 49 -112 -26 l-29 -32 44
-45 44 -45 -29 -30 -29 -30 40 -41 c60 -62 68 -64 103 -27 l31 33 36 -37 37
-36 -78 -86 c-43 -48 -82 -85 -86 -84 -4 2 -42 36 -84 77 l-76 74 26 27 c33
34 32 53 -6 90 -39 37 -55 38 -91 3 l-28 -27 -32 32 -32 32 28 29 c16 16 25
34 22 40 -4 6 -1 9 6 7 7 -2 40 26 73 63 33 36 105 115 160 175 55 59 100 115
101 125 3 40 11 41 45 4z m729 14 c0 -2 -10 -12 -22 -23 l-23 -19 19 23 c18
21 26 27 26 19z m180 -42 c14 -8 21 -14 15 -14 -5 0 -21 6 -35 14 -14 8 -20
14 -15 14 6 0 21 -6 35 -14z m289 11 c-2 -2 -15 -9 -29 -15 -24 -11 -24 -11
-6 3 16 13 49 24 35 12z m-839 -16 c0 -5 -5 -10 -11 -10 -5 0 -7 5 -4 10 3 6
8 10 11 10 2 0 4 -4 4 -10z m-740 -4 c0 -3 -4 -8 -10 -11 -5 -3 -10 -1 -10 4
0 6 5 11 10 11 6 0 10 -2 10 -4z m1347 -12 c-3 -3 -12 -4 -19 -1 -8 3 -5 6 6
6 11 1 17 -2 13 -5z m160 0 c-3 -3 -12 -4 -19 -1 -8 3 -5 6 6 6 11 1 17 -2 13
-5z m-1064 -24 c-10 -11 -19 -20 -21 -20 -1 0 2 9 8 20 6 11 15 20 20 20 6 0
2 -9 -7 -20z m578 -10 c-18 -17 -36 -30 -40 -30 -9 1 58 60 67 60 4 0 -8 -14
-27 -30z m426 24 c-3 -3 -12 -4 -19 -1 -8 3 -5 6 6 6 11 1 17 -2 13 -5z
m-1477 -8 c0 -3 -4 -8 -10 -11 -5 -3 -10 -1 -10 4 0 6 5 11 10 11 6 0 10 -2
10 -4z m-81 -84 c-19 -21 -36 -37 -38 -35 -5 3 59 73 67 73 2 0 -11 -17 -29
-38z m302 -5 c-10 -9 -11 -8 -5 6 3 10 9 15 12 12 3 -3 0 -11 -7 -18z m729 9
c0 -2 -7 -7 -16 -10 -8 -3 -12 -2 -9 4 6 10 25 14 25 6z m-458 -26 c22 11 22
10 4 -4 -25 -20 -30 -20 -47 2 -13 15 -12 16 3 4 13 -10 22 -11 40 -2z m-302
-13 c0 -2 -10 -12 -22 -23 l-23 -19 19 23 c18 21 26 27 26 19z m493 -26 c43
12 47 11 17 -5 -14 -8 -28 -12 -32 -10 -14 9 -9 -9 9 -30 9 -12 4 -9 -13 7
-16 15 -40 36 -54 47 l-25 21 34 -20 c26 -15 40 -17 64 -10z m-859 -43 c-46
-53 -94 -100 -94 -92 0 5 23 32 52 61 53 53 77 72 42 31z m484 -18 c5 -13 3
-13 -11 -1 -14 11 -20 11 -34 0 -16 -13 -17 -12 -4 4 16 21 42 19 49 -3z
m-218 -25 c-13 -14 -26 -23 -28 -20 -5 5 36 45 46 45 3 0 -5 -11 -18 -25z
m340 16 c0 -5 -14 -20 -31 -32 l-31 -22 -21 24 -22 23 22 -18 c20 -17 23 -17
47 -1 14 10 26 21 26 26 0 5 2 9 5 9 3 0 5 -4 5 -9z m31 -8 c13 -16 12 -17 -3
-4 -17 13 -22 21 -14 21 2 0 10 -8 17 -17z m247 -65 c-8 -12 -20 -24 -26 -26
-7 -2 -2 8 11 22 27 32 34 33 15 4z m-723 -58 c-3 -5 -12 -10 -18 -10 -7 0 -6
4 3 10 19 12 23 12 15 0z m-315 -20 c-6 -11 -13 -20 -16 -20 -2 0 0 9 6 20 6
11 13 20 16 20 2 0 0 -9 -6 -20z m261 -39 c-17 -16 -31 -26 -31 -23 0 10 53
62 58 57 3 -2 -9 -18 -27 -34z m641 -12 c16 10 19 10 16 -1 -11 -32 -58 -17
-79 26 -7 15 -2 12 16 -8 24 -26 30 -28 47 -17z m-587 11 c3 -5 1 -10 -4 -10
-6 0 -11 5 -11 10 0 6 2 10 4 10 3 0 8 -4 11 -10z m145 -5 c11 -13 10 -14 -4
-9 -9 3 -16 10 -16 15 0 13 6 11 20 -6z m-109 -32 c13 -16 12 -17 -3 -4 -10 7
-18 15 -18 17 0 8 8 3 21 -13z m47 -3 c-7 -11 -17 -20 -22 -20 -5 0 -1 9 9 20
10 11 20 20 22 20 2 0 -2 -9 -9 -20z m265 -22 c5 1 6 -2 2 -8 -4 -6 -15 -4
-31 6 -30 20 -32 29 -1 12 12 -7 26 -11 30 -10z m-648 -18 c10 -11 16 -20 13
-20 -3 0 -13 9 -23 20 -10 11 -16 20 -13 20 3 0 13 -9 23 -20z m175 7 c0 -2
-10 -12 -22 -23 l-23 -19 19 23 c18 21 26 27 26 19z m620 -46 c-14 -23 -60
-77 -60 -70 0 3 14 23 30 44 25 32 28 40 18 54 -12 14 -11 14 4 2 13 -9 15
-18 8 -30z m-345 -31 c10 -11 16 -20 13 -20 -3 0 -13 9 -23 20 -10 11 -16 20
-13 20 3 0 13 -9 23 -20z m111 -102 l29 -33 -32 29 c-31 28 -38 36 -30 36 2 0
16 -15 33 -32z m74 -43 c0 -7 -30 -13 -34 -7 -3 4 4 9 15 9 10 1 19 0 19 -2z"/>
<path d="M1450 2806 c7 -7 13 -7 20 0 6 6 3 10 -10 10 -13 0 -16 -4 -10 -10z"/>
<path d="M1453 2775 c0 -8 4 -12 9 -9 5 3 6 10 3 15 -9 13 -12 11 -12 -6z"/>
<path d="M1423 2745 c0 -8 4 -12 9 -9 5 3 6 10 3 15 -9 13 -12 11 -12 -6z"/>
<path d="M1503 2325 c0 -8 4 -12 9 -9 5 3 6 10 3 15 -9 13 -12 11 -12 -6z"/>
<path d="M2667 3540 c-169 -30 -327 -201 -356 -385 -18 -114 20 -227 102 -302
57 -52 88 -69 160 -82 96 -18 199 12 259 76 29 30 58 91 58 121 0 11 9 31 21
46 16 20 17 26 6 26 -21 0 -33 -19 -47 -70 -19 -74 -52 -114 -121 -149 -225
-112 -470 104 -405 357 41 162 150 284 292 327 137 41 286 -11 346 -122 39
-71 42 -125 13 -195 -5 -13 -2 -18 8 -18 23 0 40 65 34 125 -17 164 -188 278
-370 245z"/>
<path d="M3015 3040 c-11 -4 -39 -13 -61 -19 -37 -10 -42 -15 -47 -49 -4 -20
-16 -55 -27 -76 -11 -22 -18 -42 -15 -44 2 -2 21 5 42 16 22 10 53 23 71 27
41 9 59 36 68 103 7 53 4 57 -31 42z m1 -47 c-3 -10 -8 -29 -11 -43 -4 -17
-17 -29 -38 -36 -18 -6 -39 -14 -48 -18 -14 -6 -14 -3 0 43 14 44 20 51 51 59
50 14 52 14 46 -5z"/>
<path d="M2400 2754 c0 -3 11 -20 25 -38 29 -39 34 -112 10 -169 -13 -32 -12
-47 6 -47 14 0 39 82 39 131 0 55 -20 103 -49 119 -22 11 -31 13 -31 4z"/>
<path d="M2605 2438 c-55 -29 -67 -40 -56 -48 7 -4 29 2 49 12 28 15 52 18 96
15 52 -3 63 -8 88 -36 33 -37 47 -34 30 4 -18 40 -69 65 -132 65 -30 0 -64 -6
-75 -12z"/>
<path d="M1277 2330 c6 -23 31 -46 40 -37 7 8 -24 57 -36 57 -5 0 -7 -9 -4
-20z"/>
<path d="M3107 3493 c-9 -9 -9 -23 1 -21 4 1 17 -1 30 -6 27 -9 49 -49 58
-105 4 -22 11 -38 16 -35 14 9 0 92 -19 121 -9 13 -29 31 -44 39 -32 16 -33
16 -42 7z"/>
<path d="M2785 3341 c-3 -5 -2 -12 3 -15 5 -3 9 1 9 9 0 17 -3 19 -12 6z"/>
<path d="M2197 3294 c-14 -14 -7 -35 11 -32 9 2 17 10 17 17 0 16 -18 25 -28
15z"/>
<path d="M2068 3202 c-108 -86 -191 -208 -244 -356 -25 -71 -27 -106 -6 -106
5 0 12 14 16 30 11 55 68 180 115 253 47 72 122 147 193 195 36 24 42 42 13
42 -8 0 -47 -26 -87 -58z"/>
<path d="M2121 3154 c0 -11 3 -14 6 -6 3 7 2 16 -1 19 -3 4 -6 -2 -5 -13z"/>
<path d="M2265 2860 c3 -6 2 -10 -3 -10 -6 0 -13 -8 -16 -17 -6 -14 -4 -14 16
2 13 11 24 20 26 21 2 1 -4 4 -13 8 -9 3 -13 2 -10 -4z"/>
<path d="M2179 2773 l-24 -28 28 24 c25 23 32 31 24 31 -2 0 -14 -12 -28 -27z"/>
<path d="M1964 2706 c-65 -29 -124 -141 -107 -204 8 -31 23 -17 23 22 0 49 24
99 64 134 36 31 93 49 122 38 10 -4 14 -1 12 6 -6 18 -77 20 -114 4z"/>
<path d="M1994 2644 c-18 -14 -18 -15 4 -4 12 6 22 13 22 15 0 8 -5 6 -26 -11z"/>
<path d="M1145 2630 c-3 -6 1 -7 9 -4 18 7 21 14 7 14 -6 0 -13 -4 -16 -10z"/>
<path d="M1720 2611 c0 -15 -3 -50 -6 -77 -5 -46 -4 -48 10 -30 18 22 23 136
6 136 -5 0 -10 -13 -10 -29z"/>
<path d="M2216 2606 c-10 -16 -12 -27 -6 -31 6 -4 9 -3 8 2 -1 4 3 18 10 31
17 30 8 28 -12 -2z"/>
<path d="M2146 2473 c-19 -38 -49 -60 -108 -78 l-43 -14 40 0 c23 -1 54 7 72
19 33 20 67 73 60 93 -2 7 -11 -3 -21 -20z"/>
<path d="M1016 2458 c3 -5 10 -6 15 -3 13 9 11 12 -6 12 -8 0 -12 -4 -9 -9z"/>
<path d="M2056 2318 c3 -5 10 -6 15 -3 13 9 11 12 -6 12 -8 0 -12 -4 -9 -9z"/>
<path d="M1587 2233 c3 -7 6 -13 8 -13 2 0 5 6 8 13 3 8 -1 14 -8 14 -7 0 -11
-6 -8 -14z"/>
<path d="M1647 2229 c7 -7 15 -10 18 -7 3 3 -2 9 -12 12 -14 6 -15 5 -6 -5z"/>
<path d="M1664 2198 c-3 -5 0 -7 8 -6 7 2 12 -4 10 -12 -2 -8 0 -11 4 -7 14
13 12 34 -3 34 -7 0 -16 -4 -19 -9z"/>
<path d="M1374 2112 c4 -3 14 -7 22 -8 9 -1 13 0 10 4 -4 3 -14 7 -22 8 -9 1
-13 0 -10 -4z"/>
<path d="M1570 2061 c0 -6 4 -13 10 -16 6 -3 7 1 4 9 -7 18 -14 21 -14 7z"/>
<path d="M1045 1861 c-3 -5 -2 -12 3 -15 5 -3 9 1 9 9 0 17 -3 19 -12 6z"/>
<path d="M929 1833 c-12 -16 -12 -17 2 -6 9 7 20 9 24 5 5 -4 5 -1 1 6 -9 16
-11 15 -27 -5z"/>
<path d="M925 1790 c-4 -6 -4 -14 -1 -17 3 -4 6 0 6 8 1 10 5 8 15 -5 8 -11
15 -15 15 -9 0 18 -27 36 -35 23z"/>
<path d="M885 1759 c-4 -6 -5 -12 -2 -15 2 -3 7 2 10 11 7 17 1 20 -8 4z"/>
<path d="M816 1327 c3 -10 9 -15 12 -12 3 3 0 11 -7 18 -10 9 -11 8 -5 -6z"/>
<path d="M916 1131 c-4 -5 -2 -12 3 -15 5 -4 12 -2 15 3 4 5 2 12 -3 15 -5 4
-12 2 -15 -3z"/>
<path d="M975 1120 c10 -11 20 -20 23 -20 3 0 -3 9 -13 20 -10 11 -20 20 -23
20 -3 0 3 -9 13 -20z"/>
<path d="M2508 3174 c-34 -18 -48 -43 -48 -87 0 -40 45 -97 77 -97 16 0 18 -6
15 -35 -4 -29 0 -36 19 -44 14 -5 31 -5 42 1 26 13 21 29 -8 22 -18 -4 -27 -1
-31 10 -12 30 24 55 90 62 51 6 67 13 94 40 21 21 32 41 32 61 l-1 28 -13 -30
c-22 -50 -52 -69 -119 -77 -34 -3 -73 -9 -87 -13 -18 -5 -33 0 -53 15 -50 40
-27 140 32 140 11 0 23 -4 26 -10 3 -5 12 -10 18 -10 7 1 1 10 -12 20 -27 24
-37 24 -73 4z"/>
<path d="M3350 3221 c0 -6 15 -11 33 -11 39 0 97 -34 104 -61 8 -29 25 -23 21
8 -2 14 -15 35 -30 46 -30 22 -128 37 -128 18z"/>
<path d="M3096 3142 c-21 -34 32 -79 60 -50 12 12 10 14 -13 13 -20 0 -28 6
-33 25 -4 17 -8 21 -14 12z"/>
<path d="M1362 2949 c-10 -15 -10 -19 2 -19 15 0 29 27 18 34 -5 3 -13 -4 -20
-15z"/>
<path d="M2945 2559 c-4 -6 -5 -12 -2 -15 2 -3 7 2 10 11 7 17 1 20 -8 4z"/>
<path d="M3376 2758 c3 -5 10 -6 15 -3 13 9 11 12 -6 12 -8 0 -12 -4 -9 -9z"/>
<path d="M3494 2306 c4 -10 1 -26 -6 -35 -11 -14 -10 -14 6 0 15 14 16 20 6
35 -11 18 -11 18 -6 0z"/>
<path d="M3405 2131 c-3 -5 -2 -12 3 -15 5 -3 9 1 9 9 0 17 -3 19 -12 6z"/>
<path d="M3329 2063 c-13 -16 -12 -17 4 -4 16 13 21 21 13 21 -2 0 -10 -8 -17
-17z"/>
<path d="M2635 2681 l-50 -6 -2 -58 c-1 -34 2 -55 8 -52 5 4 9 18 9 33 0 38
10 48 53 56 l37 7 0 -39 c0 -38 -1 -40 -44 -51 -51 -12 -73 -33 -29 -26 15 2
45 7 66 10 l37 6 0 64 c0 56 -2 65 -17 63 -10 -1 -40 -4 -68 -7z"/>
<path d="M2505 1930 c-3 -5 -1 -10 4 -10 6 0 11 5 11 10 0 6 -2 10 -4 10 -3 0
-8 -4 -11 -10z"/>
<path d="M3250 2629 c0 -5 5 -7 10 -4 6 3 10 8 10 11 0 2 -4 4 -10 4 -5 0 -10
-5 -10 -11z"/>
<path d="M1225 2568 c-4 -10 -4 -26 0 -35 8 -17 8 -17 12 0 3 9 3 25 0 35 -4
16 -4 16 -12 0z"/>
<path d="M901 2556 c-8 -9 -11 -19 -7 -23 9 -9 29 13 24 27 -2 8 -8 7 -17 -4z"/>
<path d="M1170 2236 c0 -2 7 -7 16 -10 8 -3 12 -2 9 4 -6 10 -25 14 -25 6z"/>
<path d="M2316 2481 c-9 -14 205 -214 217 -202 6 6 -29 46 -93 108 -109 105
-115 109 -124 94z"/>
<path d="M2286 2365 c-3 -9 1 -23 9 -31 13 -14 16 -14 21 1 4 9 0 23 -8 32
-14 13 -16 13 -22 -2z"/>
<path d="M2345 2300 c-3 -5 -1 -10 5 -10 6 0 8 -5 4 -12 -5 -9 -3 -9 9 1 9 7
14 17 11 22 -7 12 -21 11 -29 -1z"/>
<path d="M2377 2273 c-19 -19 19 -38 44 -22 11 7 10 9 -3 9 -10 0 -18 5 -18
10 0 11 -13 13 -23 3z"/>
<path d="M807 2331 c-6 -26 8 -49 17 -26 9 24 8 45 -3 45 -5 0 -11 -9 -14 -19z"/>
<path d="M2166 2312 c-3 -5 35 -49 85 -97 65 -64 93 -85 101 -77 8 8 -13 33
-77 94 -94 89 -100 94 -109 80z"/>
<path d="M3290 2270 c-8 -5 -12 -12 -9 -15 4 -3 12 1 19 10 14 17 11 19 -10 5z"/>
<path d="M2099 2143 c-69 -72 -446 -486 -477 -524 -16 -19 -19 -30 -11 -35 15
-9 180 166 174 184 -3 7 -1 11 4 8 10 -7 374 387 379 410 6 26 -14 14 -69 -43z"/>
<path d="M3221 2166 c-16 -19 -11 -29 8 -17 7 5 12 14 9 21 -3 9 -8 7 -17 -4z"/>
<path d="M870 2099 c0 -9 9 -24 20 -34 26 -23 26 -4 0 26 -15 18 -19 20 -20 8z"/>
<path d="M2400 1737 c0 -9 40 -35 44 -28 3 4 -6 13 -19 19 -14 7 -25 10 -25 9z"/>
<path d="M2794 1866 c-10 -8 -15 -18 -11 -22 4 -4 15 0 24 9 22 21 12 31 -13
13z"/>
<path d="M2786 1783 c-6 -14 -5 -15 5 -6 7 7 10 15 7 18 -3 3 -9 -2 -12 -12z"/>
<path d="M1553 1735 c0 -6 6 -12 12 -12 6 0 12 6 12 12 0 6 -6 12 -12 12 -6 0
-12 -6 -12 -12z"/>
<path d="M1100 1596 c0 -2 8 -10 18 -17 15 -13 16 -12 3 4 -13 16 -21 21 -21
13z"/>
<path d="M1110 1336 c0 -2 7 -7 16 -10 8 -3 12 -2 9 4 -6 10 -25 14 -25 6z"/>
<path d="M2150 1546 c0 -2 8 -10 18 -17 15 -13 16 -12 3 4 -13 16 -21 21 -21
13z"/>
<path d="M2560 1770 c0 -5 11 -10 25 -10 14 0 25 5 25 10 0 6 -11 10 -25 10
-14 0 -25 -4 -25 -10z"/>
<path d="M1200 1740 c0 -13 20 -13 40 0 12 8 9 10 -12 10 -16 0 -28 -4 -28
-10z"/>
<path d="M2020 1480 c8 -5 20 -10 25 -10 6 0 3 5 -5 10 -8 5 -19 10 -25 10 -5
0 -3 -5 5 -10z"/>
<path d="M1984 1103 c2 -10 6 -17 10 -16 15 3 16 11 2 22 -12 10 -14 9 -12 -6z"/>
<path d="M1866 933 c-6 -14 -5 -15 5 -6 7 7 10 15 7 18 -3 3 -9 -2 -12 -12z"/>
<path d="M1015 1640 c-16 -18 -16 -20 -2 -20 9 0 21 9 27 20 6 11 7 20 2 20
-5 0 -17 -9 -27 -20z"/>
<path d="M1435 1420 c-27 -28 -36 -43 -29 -50 8 -8 22 1 47 27 21 20 37 41 37
45 0 21 -21 13 -55 -22z"/>
<path d="M1786 1332 c-3 -5 1 -9 9 -9 8 0 12 4 9 9 -3 4 -7 8 -9 8 -2 0 -6 -4
-9 -8z"/>
<path d="M1850 1428 c0 -19 18 -43 25 -36 9 9 -4 48 -16 48 -5 0 -9 -6 -9 -12z"/>
<path d="M953 1444 c-3 -8 -1 -20 6 -27 8 -8 11 -4 11 16 0 30 -7 35 -17 11z"/>
<path d="M1286 1352 c-8 -14 160 -176 174 -167 8 5 -9 28 -51 72 -74 75 -115
107 -123 95z"/>
<path d="M2225 1211 c-12 -20 35 -25 52 -6 4 4 3 5 -4 1 -6 -3 -14 -2 -18 4
-8 13 -22 13 -30 1z"/>
<path d="M2512 1073 c25 -27 39 -32 15 -5 -10 10 -15 21 -12 24 3 2 -2 5 -10
5 -12 0 -10 -6 7 -24z"/>
<path d="M2530 1087 c0 -2 6 -10 14 -16 11 -9 16 -9 22 1 4 7 4 10 -1 6 -4 -4
-14 -3 -22 3 -7 6 -13 9 -13 6z"/>
<path d="M1870 1200 c0 -11 2 -20 4 -20 2 0 6 9 9 20 3 11 1 20 -4 20 -5 0 -9
-9 -9 -20z"/>
<path d="M1210 1181 c-7 -13 -7 -22 0 -26 13 -8 30 3 30 20 0 23 -18 27 -30 6z"/>
<path d="M1064 1023 c-60 -65 -129 -140 -154 -168 -25 -27 -85 -92 -134 -143
-70 -71 -87 -95 -78 -104 9 -9 27 5 79 62 38 41 101 111 142 155 41 44 95 103
121 130 25 28 70 76 99 108 37 39 51 61 44 68 -7 7 -45 -28 -119 -108z"/>
<path d="M1095 743 c-184 -201 -189 -208 -180 -223 4 -6 21 2 42 21 31 27 41
30 72 24 20 -4 41 -11 48 -16 7 -6 13 -6 17 -1 10 16 -34 46 -67 46 l-32 0 55
60 c30 33 81 87 112 120 l58 61 0 -31 c0 -19 9 -39 24 -53 31 -30 44 -10 17
25 -27 35 -26 53 4 98 23 34 26 56 7 56 -4 0 -83 -84 -177 -187z m145 123 c0
-2 -8 -10 -17 -17 -16 -13 -17 -12 -4 4 13 16 21 21 21 13z"/>
<path d="M1416 752 c-18 -20 -21 -42 -7 -42 6 0 13 5 16 10 4 7 24 -4 49 -27
l43 -38 -45 -47 c-31 -33 -43 -52 -38 -64 5 -14 17 -5 62 44 30 34 55 64 55
67 0 3 -27 30 -59 60 -56 52 -60 54 -76 37z"/>
<path d="M1433 675 c0 -8 4 -12 9 -9 5 3 6 10 3 15 -9 13 -12 11 -12 -6z"/>
<path d="M1450 656 c0 -2 7 -7 16 -10 8 -3 12 -2 9 4 -6 10 -25 14 -25 6z"/>
<path d="M1092 397 l-22 -23 58 -57 c32 -31 60 -57 64 -57 3 0 31 29 62 65 78
88 62 105 -22 24 -35 -35 -62 -58 -58 -52 4 8 -7 25 -29 44 -25 22 -33 35 -26
42 13 13 14 37 3 37 -5 0 -18 -10 -30 -23z"/>
<path d="M1789 3663 c-13 -16 -12 -17 4 -4 9 7 17 15 17 17 0 8 -8 3 -21 -13z"/>
<path d="M1861 3603 c7 -12 15 -20 18 -17 3 2 -3 12 -13 22 -17 16 -18 16 -5
-5z"/>
<path d="M2350 3495 c-11 -13 -10 -14 4 -9 9 3 16 10 16 15 0 13 -6 11 -20 -6z"/>
<path d="M1630 3440 c-9 -6 -10 -10 -3 -10 6 0 15 5 18 10 8 12 4 12 -15 0z"/>
<path d="M1643 3405 c0 -8 4 -12 9 -9 5 3 6 10 3 15 -9 13 -12 11 -12 -6z"/>
<path d="M2058 3362 c4 -10 7 -12 10 -4 2 7 9 9 15 5 7 -3 8 -2 4 2 -14 16
-36 14 -29 -3z"/>
<path d="M1550 3240 c0 -5 5 -10 11 -10 5 0 7 5 4 10 -3 6 -8 10 -11 10 -2 0
-4 -4 -4 -10z"/>
<path d="M1452 3175 c4 -4 3 -16 -3 -26 -5 -11 -7 -19 -5 -19 3 0 10 9 16 19
7 15 7 22 -2 27 -7 4 -10 4 -6 -1z"/>
<path d="M1663 2845 c0 -8 4 -12 9 -9 5 3 6 10 3 15 -9 13 -12 11 -12 -6z"/>
<path d="M3731 2804 c0 -11 3 -14 6 -6 3 7 2 16 -1 19 -3 4 -6 -2 -5 -13z"/>
<path d="M1593 2755 c0 -8 4 -12 9 -9 5 3 6 10 3 15 -9 13 -12 11 -12 -6z"/>
<path d="M819 2643 c-13 -16 -12 -17 4 -4 9 7 17 15 17 17 0 8 -8 3 -21 -13z"/>
<path d="M3556 2113 c-6 -14 -5 -15 5 -6 7 7 10 15 7 18 -3 3 -9 -2 -12 -12z"/>
<path d="M3500 2029 c0 -5 5 -7 10 -4 6 3 10 8 10 11 0 2 -4 4 -10 4 -5 0 -10
-5 -10 -11z"/>
<path d="M830 1970 c-9 -6 -10 -10 -3 -10 6 0 15 5 18 10 8 12 4 12 -15 0z"/>
<path d="M3400 1956 c0 -2 7 -7 16 -10 8 -3 12 -2 9 4 -6 10 -25 14 -25 6z"/>
<path d="M756 1842 c-3 -5 1 -9 9 -9 8 0 12 4 9 9 -3 4 -7 8 -9 8 -2 0 -6 -4
-9 -8z"/>
<path d="M739 1799 l-24 -20 28 17 c15 9 27 18 27 20 0 8 -8 4 -31 -17z"/>
<path d="M2974 1623 c2 -9 8 -18 15 -19 6 -1 7 0 1 3 -5 2 -8 9 -5 13 3 5 1
11 -4 14 -5 4 -8 -2 -7 -11z"/>
<path d="M3015 1621 c-3 -5 -2 -12 3 -15 5 -3 9 1 9 9 0 17 -3 19 -12 6z"/>
<path d="M2916 1568 c3 -5 10 -6 15 -3 13 9 11 12 -6 12 -8 0 -12 -4 -9 -9z"/>
<path d="M2950 1549 c0 -5 5 -7 10 -4 6 3 10 8 10 11 0 2 -4 4 -10 4 -5 0 -10
-5 -10 -11z"/>
<path d="M2965 1480 c-4 -6 -5 -10 -3 -11 25 -6 38 -6 38 1 0 12 -29 20 -35
10z"/>
<path d="M676 1257 c3 -10 9 -15 12 -12 3 3 0 11 -7 18 -10 9 -11 8 -5 -6z"/>
<path d="M820 930 c-9 -6 -10 -10 -3 -10 6 0 15 5 18 10 8 12 4 12 -15 0z"/>
<path d="M759 879 l-24 -20 28 17 c15 9 27 18 27 20 0 8 -8 4 -31 -17z"/>
<path d="M696 808 c3 -5 10 -6 15 -3 13 9 11 12 -6 12 -8 0 -12 -4 -9 -9z"/>
<path d="M575 729 c-4 -6 -5 -12 -2 -15 2 -3 7 2 10 11 7 17 1 20 -8 4z"/>
<path d="M486 633 c-6 -14 -5 -15 5 -6 7 7 10 15 7 18 -3 3 -9 -2 -12 -12z"/>
<path d="M906 367 c3 -10 9 -15 12 -12 3 3 0 11 -7 18 -10 9 -11 8 -5 -6z"/>
<path d="M760 366 c0 -2 7 -7 16 -10 8 -3 12 -2 9 4 -6 10 -25 14 -25 6z"/>
<path d="M966 301 c-4 -5 3 -7 14 -4 23 6 26 13 6 13 -8 0 -17 -4 -20 -9z"/>
<path d="M985 280 c-4 -6 -11 -7 -17 -4 -7 4 -8 2 -4 -5 6 -9 11 -9 22 0 14
11 18 19 10 19 -3 0 -8 -5 -11 -10z"/>
<path d="M1046 242 c-3 -5 1 -9 9 -9 8 0 12 4 9 9 -3 4 -7 8 -9 8 -2 0 -6 -4
-9 -8z"/>
<path d="M1310 222 c0 -5 7 -9 15 -9 8 0 12 4 9 9 -3 4 -9 8 -15 8 -5 0 -9 -4
-9 -8z"/>
<path d="M1178 123 c7 -3 16 -2 19 1 4 3 -2 6 -13 5 -11 0 -14 -3 -6 -6z"/>
</g>
</svg>